<svg width="722" height="544" viewBox="0 0 722 544" fill="none" xmlns="http://www.w3.org/2000/svg">
<g clip-path="url(#clip0)">
<path opacity="0.18" d="M289.117 30.2684L266.33 24.4771C233.058 16.292 197.257 8.22265 165.259 20.481C139.267 30.5001 119.995 52.4301 101.805 73.3948C77.8791 101.078 53.7796 129.011 35.9367 160.98C-6.14081 236.383 -12.4553 343.639 23.2884 422.074C37.5202 453.328 56.5797 483.674 85.0819 502.979C114.762 523.114 152.302 529.291 188.007 525.951C223.712 522.612 258.007 510.411 290.835 496.319C327.525 480.605 366.397 461.976 405.559 469.621C426.009 473.597 444.334 484.485 462.718 494.273C495.044 511.492 529.609 526.029 566.106 529.195C602.603 532.361 641.417 522.94 667.853 497.535C693.555 472.787 704.543 436.552 710.645 401.418C717.134 364.942 718.583 327.749 714.952 290.88C711.476 255.089 726.538 221.287 720.59 184.55C715.898 155.767 700.855 127.872 676.369 112.004C645.994 92.3326 607.141 93.7804 570.953 94.6298C540.211 95.3505 509.469 95.1446 478.726 94.0121C459.879 93.3364 440.781 92.2361 422.861 86.2903C402.392 79.553 384.472 66.9857 365.296 57.1211C341.294 44.882 315.34 36.9864 289.117 30.2684Z" fill="#768386"/>
<path d="M336.157 189.319L353.537 132.602C355.777 121.733 356.761 108.915 357.997 97.8537C358.613 94.241 358.58 90.5478 357.901 86.9466C356.781 82.2556 353.633 77.1785 356.143 73.0473C358.654 68.9161 365.625 69.5918 369.893 72.4489C375.782 76.3098 379.722 85.1513 375.048 90.4793C373.596 91.7255 372.234 93.0738 370.974 94.514C369.371 96.985 369.815 100.305 370.124 103.143C371.553 116.656 368.734 130.169 365.953 143.683L358.229 180.632C356.298 189.627 353.324 199.936 344.712 203.276C344.084 203.582 343.399 203.754 342.7 203.781C342.002 203.807 341.306 203.688 340.656 203.43C339.883 202.988 339.222 202.374 338.725 201.635C336.736 198.488 336.37 193.083 336.157 189.319Z" fill="#C1A7A7"/>
<path d="M336.157 189.319L353.537 132.602C355.777 121.733 356.761 108.915 357.997 97.8537C358.613 94.241 358.58 90.5478 357.901 86.9466C356.781 82.2556 353.633 77.1785 356.143 73.0473C358.654 68.9161 365.625 69.5918 369.893 72.4489C375.782 76.3098 379.722 85.1513 375.048 90.4793C373.596 91.7255 372.234 93.0738 370.974 94.514C369.371 96.985 369.815 100.305 370.124 103.143C371.553 116.656 368.734 130.169 365.953 143.683L358.229 180.632C356.298 189.627 353.324 199.936 344.712 203.276C344.084 203.582 343.399 203.754 342.7 203.781C342.002 203.807 341.306 203.688 340.656 203.43C339.883 202.988 339.222 202.374 338.725 201.635C336.736 198.488 336.37 193.083 336.157 189.319Z" fill="url(#paint0_linear)"/>
<path d="M436.185 333.89C436.352 344.757 434.375 355.55 430.369 365.653C426.362 375.756 420.405 384.972 412.836 392.773C405.267 400.574 396.235 406.809 386.256 411.121C376.277 415.433 365.546 417.738 354.676 417.904C343.806 418.07 333.009 416.094 322.903 412.089C312.797 408.084 303.579 402.128 295.775 394.561C287.971 386.995 281.735 377.966 277.421 367.99C273.108 358.014 270.803 347.286 270.637 336.419C270.637 335.57 270.637 334.74 270.637 333.89C270.594 331.777 270.678 329.662 270.888 327.559C272.489 306.198 282.316 286.291 298.299 272.024C314.283 257.758 335.178 250.245 356.59 251.065C378.001 251.885 398.26 260.975 413.105 276.422C427.95 291.869 436.223 312.47 436.185 333.89Z" fill="#768386"/>
<path opacity="0.14" d="M318.623 371.476C315.881 383.445 319.222 396.186 316.692 408.155C297.569 398.713 282.823 382.263 275.522 362.229C275.116 358.115 275.213 353.966 275.812 349.875C276.372 345.473 277.183 340.917 275.947 336.651C274.751 333.374 273.015 330.32 270.81 327.616C271.725 315.518 275.297 303.771 281.271 293.21C287.246 282.649 295.476 273.535 305.376 266.517C305.473 267.073 305.473 267.641 305.376 268.197L301.823 283.949C302.538 288.62 302.538 293.372 301.823 298.042C301.444 300.376 300.555 302.598 299.22 304.549C297.885 306.501 296.137 308.135 294.099 309.335C292.572 309.971 291.088 310.706 289.657 311.536C288.273 312.65 287.124 314.028 286.278 315.59C283.984 318.775 282.277 322.345 281.238 326.13C280.726 328.021 280.696 330.01 281.152 331.915C281.607 333.821 282.533 335.582 283.845 337.037L307.017 332.558C309.431 332.095 312.347 331.767 314.008 333.582C315.939 335.744 314.742 339.218 315.186 342.133C315.726 345.859 319.048 348.543 320.593 352.017C323.393 358.06 320.129 364.951 318.623 371.476Z" fill="#020202"/>
<path opacity="0.14" d="M297.613 275.88C294.311 279.741 290.893 283.853 289.889 288.814C289.576 289.879 289.576 291.012 289.889 292.077C290.334 292.917 290.95 293.653 291.699 294.239C292.448 294.824 293.311 295.245 294.234 295.474C302.083 298.487 310.451 299.917 318.855 299.683C318.372 304.412 318.16 309.895 321.616 313.196C322.923 314.336 324.438 315.215 326.077 315.783C331.281 317.831 336.788 319.005 342.375 319.258C347.048 319.47 351.779 319.007 356.452 319.528C362.222 320.159 367.74 322.23 372.499 325.551C373.72 326.288 374.726 327.333 375.415 328.582C375.921 329.93 376.125 331.373 376.014 332.809C376.047 337.888 376.695 342.944 377.945 347.867C379.2 352.654 381.228 357.519 385.244 360.434C387.37 361.803 389.687 362.85 392.119 363.542L408.629 369.179C409.029 369.361 409.478 369.402 409.904 369.295C410.31 369.077 410.625 368.721 410.792 368.291C412.627 364.7 414.442 360.724 413.689 356.708C412.936 352.693 409.827 349.778 408.378 346.091C406.003 340.3 407.857 333.427 405.907 327.443C404.517 323.816 402.318 320.554 399.476 317.906C394.702 313.198 389.626 308.806 384.279 304.76C375.782 298.042 367.17 291.247 357.244 286.768C353.266 284.953 348.825 283.312 346.527 279.606C343.765 275.147 344.963 269.027 341.989 264.703C339.556 261.189 334.979 259.838 330.711 259.607C323.648 259.395 316.652 261.032 310.416 264.355C304.797 267.193 301.707 271.073 297.613 275.88Z" fill="#020202"/>
<path opacity="0.14" d="M436.185 333.89C436.201 346.405 433.37 358.76 427.907 370.02C422.444 381.281 414.492 391.152 404.651 398.889C403.51 398.14 402.531 397.168 401.774 396.032C399.302 392.287 400.113 386.379 404.111 384.256C402.72 384.99 397.255 383.194 395.614 382.943L387.098 381.631C383.024 380.993 375.898 381.264 373.581 377.152C373.319 376.582 373.002 376.039 372.635 375.53C372.127 375.014 371.523 374.601 370.858 374.314C368.29 373.059 365.297 371.65 364.679 368.851C364.254 366.805 365.277 364.488 364.215 362.673C363.887 362.114 363.385 361.67 363.057 361.11C362.699 360.267 362.564 359.347 362.666 358.437C362.767 357.528 363.101 356.66 363.636 355.917C367.228 349.643 374.662 346.593 381.807 345.396C388.952 344.199 396.329 344.373 403.28 342.365C407.664 341.091 411.835 338.967 416.354 338.35C418.845 338.002 421.973 337.732 422.881 335.396C423.383 334.064 422.881 332.52 423.402 331.188C423.614 330.609 424.001 330.107 424.213 329.528C424.351 329.1 424.404 328.65 424.369 328.203C424.333 327.755 424.209 327.319 424.005 326.919C423.8 326.519 423.519 326.164 423.177 325.872C422.835 325.581 422.439 325.361 422.012 325.223C421.797 325.159 421.577 325.114 421.355 325.088C421.934 323.543 422.398 321.555 421.181 320.454C420.753 320.141 420.256 319.935 419.732 319.855C419.207 319.774 418.671 319.821 418.169 319.991C415.195 320.725 413.051 323.234 410.56 325.01C402.296 330.802 390.96 328.871 384.066 321.883C382.948 320.896 382.148 319.599 381.768 318.157C381.661 316.926 381.939 315.692 382.566 314.626C383.192 313.56 384.135 312.716 385.264 312.211C387.527 311.245 389.967 310.765 392.428 310.802C391.52 304.798 390.497 298.775 389.666 292.791C375.917 296.478 370.356 283.37 368.425 272.483C366.494 261.595 374.218 257.695 384.182 257.039C399.538 263.19 412.698 273.799 421.967 287.496C431.236 301.194 436.188 317.353 436.185 333.89Z" fill="#020202"/>
<path d="M375.261 370.608C375.261 375.164 382.618 379.468 386.21 380.53C387.711 380.841 389.174 381.314 390.574 381.939C391.264 382.281 391.844 382.809 392.247 383.465C392.65 384.121 392.86 384.876 392.853 385.646C392.698 386.978 391.617 388.059 391.327 389.352C391.17 390.488 391.31 391.645 391.733 392.711C393.104 397.132 398.549 399.873 399.882 404.294C407.413 403.541 410.811 404.178 418.265 402.923L424.483 398.947C421.355 393.155 418.246 387.248 415.098 381.38C413.901 378.892 412.417 376.554 410.676 374.411C408.621 372.284 406.297 370.434 403.763 368.909C397.223 364.657 390.418 360.827 383.391 357.442C384.337 357.982 375.261 369.43 375.261 370.608Z" fill="url(#paint1_linear)"/>
<path d="M379.664 349.932C378.891 352.442 378.196 355.396 379.664 357.5C380.381 358.385 381.33 359.054 382.406 359.43C383.658 360.043 385.058 360.29 386.445 360.143C387.832 359.996 389.149 359.462 390.246 358.6C391.403 357.324 392.22 355.777 392.621 354.102C394.572 347.977 395.981 341.691 396.831 335.319C396.985 334.737 396.985 334.125 396.831 333.543C396.503 332.928 395.98 332.439 395.344 332.153C392.003 330.358 386.77 328.91 384.897 332.906C382.444 338.137 381.324 344.469 379.664 349.932Z" fill="#C1A7A7"/>
<path d="M389.724 352.847C390.439 352.753 391.166 352.825 391.848 353.06C392.309 353.314 392.71 353.663 393.026 354.083L400.249 362.345C401.658 363.948 403.145 366.206 402.18 368.021C401.841 368.557 401.386 369.009 400.847 369.343C400.309 369.678 399.701 369.886 399.071 369.951C395.569 370.306 392.04 369.635 388.913 368.021C386.673 367.036 384.491 365.975 382.328 364.816C380.714 364.076 379.308 362.949 378.235 361.534C376.593 358.986 376.091 352.847 379.046 350.936C380.513 349.99 381.807 350.666 383.236 351.342C385.246 352.359 387.472 352.875 389.724 352.847Z" fill="#768386"/>
<path d="M419.771 378.04C419.827 378.509 419.774 378.984 419.617 379.43C419.368 379.869 419.008 380.235 418.574 380.492C417.195 381.445 415.576 381.993 413.901 382.075C413.071 382.112 412.243 381.958 411.483 381.623C410.722 381.288 410.05 380.782 409.518 380.144C408.746 378.901 408.282 377.491 408.166 376.032C407.555 372.89 407.251 369.696 407.258 366.496C407.215 366.308 407.214 366.114 407.256 365.926C407.298 365.738 407.381 365.562 407.499 365.41C407.618 365.258 407.768 365.135 407.94 365.049C408.113 364.963 408.302 364.916 408.494 364.913C411.101 364.353 416.218 362.982 417.609 366.206C418.944 370.014 419.673 374.007 419.771 378.04Z" fill="#C1A7A7"/>
<path d="M430.798 377.712C433.029 377.824 435.233 378.253 437.344 378.986C438.406 379.359 439.381 379.945 440.208 380.708C441.035 381.472 441.696 382.397 442.152 383.426C442.572 384.452 442.62 385.592 442.287 386.65C441.57 388.187 440.302 389.399 438.734 390.047C431.297 394.084 422.867 395.932 414.422 395.375C412.249 395.449 410.133 394.666 408.533 393.194C407.348 391.427 406.797 389.311 406.969 387.19L406.679 377.19C408.61 376.901 410.29 378.136 412.086 378.754C415.195 379.816 416.411 377.268 418.98 376.65C422.32 375.878 427.38 377.364 430.798 377.712Z" fill="#768386"/>
<path d="M389.724 352.847C390.439 352.753 391.166 352.825 391.848 353.06C392.309 353.314 392.71 353.663 393.026 354.083L400.249 362.345C401.658 363.948 403.145 366.206 402.18 368.021C401.841 368.557 401.386 369.009 400.847 369.343C400.309 369.678 399.701 369.886 399.071 369.951C395.569 370.306 392.04 369.635 388.913 368.021C386.673 367.036 384.491 365.975 382.328 364.816C380.714 364.076 379.308 362.949 378.235 361.534C376.593 358.986 376.091 352.847 379.046 350.936C380.513 349.99 381.807 350.666 383.236 351.342C385.246 352.359 387.472 352.875 389.724 352.847Z" fill="url(#paint2_linear)"/>
<path d="M377.211 354.353C377.324 355.108 377.525 355.846 377.81 356.554C378.122 357.491 378.537 358.391 379.046 359.237C379.74 360.218 380.603 361.068 381.595 361.747C384.083 363.42 386.802 364.721 389.666 365.608C394.013 367.301 398.735 367.794 403.338 367.036C402.921 368.053 402.135 368.874 401.137 369.334C400.147 369.782 399.076 370.025 397.989 370.048C393.745 369.925 389.589 368.801 385.862 366.766L381.595 364.836C380.996 364.57 380.421 364.254 379.876 363.89C379.118 363.325 378.465 362.633 377.945 361.843C376.977 360.426 376.385 358.785 376.226 357.075C376.149 356.248 376.208 355.413 376.4 354.604C376.4 354.257 376.902 352.674 377.366 352.674C377.199 353.217 377.147 353.789 377.211 354.353Z" fill="#473F47"/>
<path d="M430.798 377.712C433.029 377.824 435.233 378.253 437.344 378.986C438.406 379.359 439.381 379.945 440.208 380.708C441.035 381.472 441.696 382.397 442.152 383.426C442.572 384.452 442.62 385.592 442.287 386.65C441.57 388.187 440.302 389.399 438.734 390.047C431.297 394.084 422.867 395.932 414.422 395.375C412.249 395.449 410.133 394.666 408.533 393.194C407.348 391.427 406.797 389.311 406.969 387.19L406.679 377.19C408.61 376.901 410.29 378.136 412.086 378.754C415.195 379.816 416.411 377.268 418.98 376.65C422.32 375.878 427.38 377.364 430.798 377.712Z" fill="url(#paint3_linear)"/>
<path d="M404.053 267.27C406.224 267.676 408.234 268.694 409.846 270.205C411.777 272.29 411.777 275.378 411.777 278.197C411.736 298.4 407.978 318.424 400.693 337.269C400.528 337.963 400.223 338.617 399.799 339.191C399.374 339.765 398.837 340.247 398.221 340.608C397.109 340.935 395.919 340.881 394.842 340.454C390.476 339.236 386.177 337.793 381.962 336.13L387.658 297.733C387.93 296.659 387.87 295.528 387.484 294.49C387.062 293.769 386.473 293.16 385.766 292.714C379.263 287.9 372.386 283.614 365.2 279.896C359.407 276.942 352.919 273.583 351.354 267.251C351.033 266.191 350.967 265.07 351.162 263.98C351.357 262.89 351.806 261.861 352.474 260.977C353.378 260.074 354.446 259.353 355.622 258.854C359.484 256.923 364.215 254.51 368.599 254.993C372.075 255.34 373.426 257.406 376.323 258.854C384.511 263.12 395.267 264.664 404.053 267.27Z" fill="white"/>
<path d="M386.499 337.655C386.017 337.5 387.716 328.447 387.871 327.539C388.18 325.763 389.512 317.887 390.922 323.35C391.15 324.548 391.292 325.761 391.346 326.979C391.521 328.433 391.772 329.877 392.1 331.304C392.28 332.424 392.612 333.515 393.084 334.547C393.98 336.06 395.176 337.374 396.599 338.408C396.864 338.691 397.219 338.875 397.603 338.929C398.163 338.929 398.588 338.408 398.82 337.886C399.4 336.266 399.649 334.547 399.553 332.829C399.843 323.176 404.844 314.76 404.516 304.856C404.516 302.443 402.218 299.528 401.253 297.308C400.397 295.515 399.75 293.631 399.322 291.691C398.105 285.108 401.987 278.679 402.527 272L389.435 278.428L381.962 336.207L386.499 337.655Z" fill="url(#paint4_linear)"/>
<path d="M352.474 261.633C349.85 263.101 347.149 264.429 344.383 265.61C343.65 265.938 342.916 266.247 342.163 266.537C333.662 270.033 324.424 271.36 315.282 270.398C314.356 270.282 313.429 270.127 312.502 269.934C307.233 269.092 302.41 266.477 298.83 262.521C294.562 257.406 293.558 250.282 293.288 243.584V241.653C293.051 233.301 293.698 224.947 295.219 216.731C296.795 206.96 300.579 197.677 306.284 189.589C310.13 184.386 315.135 180.15 320.902 177.215C326.869 174.184 333.936 172.64 340.309 174.744C343.615 175.963 346.671 177.775 349.327 180.091C350.319 180.832 351.209 181.702 351.972 182.678C353.042 184.242 353.778 186.01 354.135 187.871C356.781 199.454 353.112 211.287 350.273 222.793C348.709 229.356 347.512 236.576 350.505 242.599C354.772 251.112 365.103 254.587 352.474 261.633Z" fill="#768386"/>
<path d="M352.474 261.672C352.243 264.336 348.883 265.321 346.198 265.533L344.383 265.63C334.734 266.188 325.056 265.303 315.669 263.004C314.513 262.597 313.263 262.543 312.077 262.85C311.896 262.913 311.727 263.004 311.575 263.12V263.757C311.27 264.809 311.207 265.917 311.391 266.996C311.575 268.076 312.001 269.1 312.637 269.992C307.368 269.15 302.545 266.535 298.965 262.579C294.697 257.464 293.693 250.34 293.423 243.642V241.711C293.297 236.764 293.452 231.815 293.886 226.885C294.027 222.476 294.675 218.097 295.817 213.835C298.605 205.749 303.561 198.583 310.146 193.122C310.758 192.55 311.472 192.098 312.251 191.79C313.131 191.571 314.047 191.537 314.941 191.69C315.835 191.843 316.688 192.179 317.445 192.678C318.763 193.309 319.934 194.21 320.882 195.322C322.102 197.011 322.775 199.032 322.813 201.114C322.872 203.932 322.62 206.748 322.06 209.511C321.482 213.646 320.592 217.731 319.395 221.731C318.821 223.192 318.388 224.705 318.102 226.248C317.869 228.235 318.218 230.247 319.106 232.04C319.82 233.661 319.936 235.36 320.515 237.059C321.71 240.551 323.624 243.754 326.135 246.46C331.368 251.971 338.269 255.607 345.774 256.807C347.337 256.944 348.869 257.328 350.312 257.946C350.976 258.313 351.528 258.854 351.909 259.51C352.29 260.166 352.485 260.913 352.474 261.672Z" fill="url(#paint5_linear)"/>
<path d="M327.989 191.23C329.01 192.518 330.291 193.577 331.748 194.338C333.205 195.1 334.806 195.547 336.447 195.651C336.965 195.709 337.488 195.593 337.934 195.322C338.401 194.849 338.664 194.211 338.667 193.546C338.822 192.214 339.015 190.515 339.15 188.817C339.285 187.118 339.556 184.956 339.749 183.604C340.139 179.761 341.597 176.103 343.958 173.045C344.44 172.378 344.997 171.769 345.619 171.23C349.694 167.562 333.125 169.01 330.943 164.01C328.433 167.273 328.665 171.848 327.545 175.844C326.797 177.791 326.152 179.775 325.613 181.79C325.328 183.442 325.392 185.135 325.801 186.761C326.21 188.387 326.956 189.909 327.989 191.23Z" fill="#C1A7A7"/>
<path d="M338.938 189.589L339.15 188.817C339.382 186.886 339.556 184.956 339.749 183.604C340.139 179.761 341.597 176.103 343.958 173.045L344.074 172.639C344.074 172.639 330.943 164.01 329.533 174.107C328.124 184.203 338.938 189.589 338.938 189.589Z" fill="url(#paint6_linear)"/>
<path d="M352.629 167.06C352.881 169.154 352.49 171.275 351.509 173.141C350.985 173.894 350.331 174.548 349.578 175.072C344.364 178.933 336.524 178.219 331.349 174.145C328.836 171.992 326.81 169.33 325.405 166.334C324.001 163.339 323.249 160.079 323.2 156.771C322.835 153.324 323.81 149.868 325.922 147.119C327.207 145.873 328.782 144.968 330.506 144.486C332.229 144.004 334.046 143.96 335.79 144.358C340.551 145.478 344.888 147.944 348.284 151.462C351.625 155.207 352.455 162.331 352.629 167.06Z" fill="#C1A7A7"/>
<path d="M399.978 294.065C402.688 297.564 404.82 301.475 406.293 305.648C414.525 325.872 419.862 347.156 422.147 368.87C415.408 369.72 408.59 369.72 401.851 368.87C401.323 353.489 398.983 338.223 394.88 323.389C394.167 320.213 392.927 317.179 391.211 314.412C388.218 309.991 383.294 307.443 378.563 305.049C367.667 299.642 356.263 295.322 344.518 292.154C339.575 290.764 334.593 289.509 329.727 287.83C325.531 286.579 321.603 284.563 318.14 281.884C316.411 280.53 314.969 278.843 313.902 276.923C312.834 275.004 312.161 272.89 311.922 270.707C311.922 271.826 336.524 270.707 338.822 270.359C346.546 269.529 355.583 265.05 363.192 268.216C369.139 270.687 374.566 275.842 379.915 279.394C386.693 283.814 394.726 287.946 399.978 294.065Z" fill="white"/>
<path d="M364.93 292.424L322.099 271.189L371.669 253.333L410.715 270.649L364.93 292.424Z" fill="#768386"/>
<path d="M365.161 289.2L329.418 271.459L370.8 256.556L403.415 271.015L365.161 289.2Z" fill="url(#paint7_linear)"/>
<path d="M305.473 201.461C305.376 202.195 305.28 202.928 305.202 203.662C304.044 214.55 305.086 225.264 305.492 236.113C305.743 242.812 306.612 255.61 313.622 259.047C326.791 265.475 352.127 263.004 352.127 263.004C355.063 262.54 358.061 262.658 360.952 263.352C362.535 263.853 363.983 264.703 365.509 265.282C371.051 267.444 377.25 266.344 383.082 265.282C384.092 265.166 385.066 264.837 385.94 264.317C388.199 262.772 388.102 259.105 386.422 256.942C384.525 254.963 382.064 253.615 379.374 253.082C372.01 250.629 364.101 250.321 356.568 252.194C355.606 252.52 354.626 252.791 353.633 253.004C352.472 253.194 351.295 253.278 350.119 253.255H341.158C330.885 253.352 321.191 253.39 319.647 241.171C319.068 236.651 318.951 232.085 319.299 227.542C319.917 219.337 322.022 211.21 321.578 202.986C321.533 200.379 320.871 197.818 319.647 195.515C319.044 194.38 318.159 193.419 317.076 192.726C315.994 192.033 314.751 191.631 313.467 191.558C312.123 191.662 310.829 192.115 309.714 192.874C308.6 193.633 307.703 194.67 307.114 195.882C306.254 197.635 305.699 199.522 305.473 201.461Z" fill="#C1A7A7"/>
<path d="M426.801 231.576L372.229 259.78L364.93 292.424L410.715 270.649L426.801 231.576Z" fill="#768386"/>
<path d="M353.208 143.895C352.969 143.559 352.675 143.266 352.339 143.026C352.707 142.863 353.014 142.589 353.218 142.243C353.422 141.897 353.513 141.496 353.479 141.096C353.363 140.285 352.783 140.227 352.204 139.899C351.625 139.571 351.934 139.223 351.528 138.586C351.237 138.221 350.814 137.985 350.35 137.93L346.257 136.887C346.257 136.366 346.392 135.748 346.006 135.401C345.619 135.054 344.519 135.401 343.727 135.208C342.607 135.034 342.105 133.722 341.294 132.911C339.479 131.115 338.281 132.911 336.64 133.2C334.999 133.49 334.342 131.733 332.45 131.482C330.969 131.37 329.481 131.574 328.085 132.081C326.54 132.431 325.107 133.161 323.914 134.204C323.083 135.147 322.429 136.233 321.983 137.409C321.516 137.059 320.929 136.908 320.351 136.988C319.773 137.067 319.249 137.371 318.894 137.833L318.72 138.123C318.353 138.914 318.488 139.899 317.967 140.575C317.575 140.536 317.18 140.536 316.789 140.575C316.4 140.676 316.037 140.86 315.727 141.115C315.411 141.386 315.157 141.72 314.981 142.096C314.804 142.472 314.71 142.881 314.703 143.297C314.099 143.148 313.463 143.195 312.888 143.432C313.198 142.873 313.413 142.266 313.525 141.636C313.593 141.4 313.6 141.151 313.546 140.912C313.492 140.672 313.378 140.45 313.216 140.266C312.83 139.957 312.077 140.266 312.231 140.768C312.314 140.574 312.358 140.365 312.36 140.155C312.362 139.944 312.322 139.735 312.243 139.539C312.164 139.344 312.048 139.166 311.9 139.016C311.752 138.865 311.576 138.746 311.382 138.663C310.977 138.53 310.544 138.51 310.128 138.606C309.713 138.701 309.332 138.908 309.026 139.204C308.736 138.934 309.238 138.432 309.122 138.046C309.068 137.911 308.982 137.792 308.871 137.698C308.355 137.211 307.761 136.813 307.114 136.521C306.801 136.385 306.457 136.335 306.117 136.376C305.778 136.416 305.456 136.546 305.183 136.752C304.951 135.324 303.716 133.142 301.939 133.567C301.418 133.683 300.973 134.301 301.244 134.783C300.612 134.095 299.841 133.55 298.982 133.184C298.123 132.818 297.195 132.639 296.262 132.66C295.624 132.66 294.755 133.181 295.084 133.741C294.262 133.129 293.325 132.691 292.33 132.452C291.334 132.213 290.3 132.179 289.291 132.351C289.111 132.344 288.933 132.393 288.782 132.489C288.63 132.586 288.511 132.726 288.441 132.891C288.344 133.22 288.904 133.586 289.04 133.258C288.532 133.181 288.014 133.245 287.541 133.442C287.067 133.64 286.657 133.963 286.355 134.378C285.856 134.946 285.591 135.682 285.613 136.437C285.634 137.193 285.941 137.912 286.471 138.451C287.649 139.416 289.889 138.451 289.58 136.887C290.001 137.404 290.594 137.751 291.251 137.864C291.907 137.978 292.583 137.85 293.153 137.505C293.302 138.273 293.75 138.949 294.398 139.387C295.046 139.825 295.841 139.988 296.609 139.841C296.972 139.767 297.318 139.63 297.633 139.436C297.81 140.178 298.194 140.856 298.741 141.389C299.288 141.922 299.975 142.289 300.722 142.447C302.221 142.737 303.762 142.737 305.26 142.447C304.876 142.779 304.418 143.016 303.926 143.14C303.433 143.264 302.918 143.272 302.422 143.161C301.946 143.046 301.449 143.046 300.973 143.161C300.464 143.433 300.012 143.8 299.641 144.242C299.566 144.323 299.482 144.395 299.39 144.455C299.152 144.556 298.896 144.608 298.637 144.608C298.378 144.608 298.122 144.556 297.884 144.455C297.208 144.222 296.474 144.222 295.798 144.455C295.467 144.584 295.188 144.818 295.003 145.122C294.818 145.425 294.738 145.781 294.775 146.134C294.354 146.047 293.92 146.044 293.497 146.125C293.075 146.205 292.673 146.369 292.314 146.606C291.955 146.843 291.646 147.148 291.406 147.504C291.165 147.861 290.998 148.261 290.913 148.683C290.864 149.002 290.864 149.328 290.913 149.648C290.486 149.506 290.025 149.505 289.598 149.644C289.171 149.783 288.799 150.055 288.537 150.42C288.316 150.762 288.159 151.141 288.074 151.54C287.916 152.269 287.845 153.014 287.862 153.76C287.847 154.061 287.913 154.361 288.055 154.628C288.123 154.763 288.234 154.872 288.37 154.938C288.506 155.004 288.659 155.024 288.808 154.995C288.603 155.228 288.448 155.501 288.355 155.797C288.262 156.093 288.232 156.405 288.267 156.713C288.341 156.96 288.474 157.185 288.653 157.37C288.959 157.766 289.386 158.051 289.87 158.18C290.109 158.246 290.361 158.249 290.601 158.188C290.842 158.127 291.062 158.005 291.241 157.833C291.743 157.35 291.743 156.559 292.168 155.902C292.121 156.103 292.128 156.313 292.189 156.509C292.251 156.706 292.363 156.883 292.515 157.022C292.847 157.288 293.27 157.413 293.693 157.37C293.811 157.36 293.924 157.32 294.022 157.254C294.101 157.172 294.161 157.073 294.195 156.964C294.51 156.131 294.558 155.22 294.331 154.358C294.518 154.528 294.747 154.646 294.994 154.701C295.242 154.755 295.499 154.743 295.74 154.667C295.979 154.581 296.191 154.431 296.351 154.234C296.511 154.036 296.613 153.799 296.648 153.547C296.629 153.277 296.629 153.006 296.648 152.736C296.648 152.35 297.227 152.235 297.536 152.022C297.968 151.727 298.375 151.398 298.753 151.038C298.927 150.864 300.684 148.837 300.51 148.702C300.959 148.991 301.5 149.104 302.028 149.019C302.556 148.933 303.033 148.655 303.368 148.239C303.669 148.774 304.151 149.187 304.727 149.402C305.303 149.618 305.936 149.623 306.516 149.416C304.543 150.787 302.73 152.373 301.109 154.146C299.499 155.905 298.533 158.157 298.366 160.536C298.306 161.743 298.676 162.933 299.409 163.895C299.791 164.358 300.298 164.701 300.87 164.883C301.443 165.065 302.055 165.077 302.634 164.918C302.612 164.74 302.551 164.57 302.455 164.419C302.359 164.268 302.23 164.141 302.078 164.047C301.926 163.952 301.755 163.893 301.577 163.873C301.399 163.854 301.22 163.874 301.051 163.933C300.716 164.076 300.417 164.29 300.174 164.56C299.931 164.83 299.749 165.15 299.641 165.497C299.441 165.923 299.338 166.387 299.338 166.858C299.338 167.328 299.441 167.793 299.641 168.219C299.844 168.62 300.197 168.925 300.625 169.066C301.052 169.207 301.518 169.173 301.92 168.972C302.278 168.649 302.573 168.263 302.789 167.833C303.483 167.055 304.218 166.314 304.99 165.613C305.356 165.249 305.586 164.771 305.642 164.258C305.698 163.745 305.577 163.229 305.299 162.794C306.38 162.273 306.342 160.651 305.743 159.609C305.002 158.678 304.355 157.675 303.812 156.617H307.829L309.76 154.841C310.583 155.363 311.507 155.707 312.472 155.85C313.436 155.993 314.42 155.932 315.36 155.671C315.2 156.613 315.338 157.582 315.753 158.443C316.168 159.304 316.84 160.015 317.677 160.478C317.349 160.729 316.885 161.037 316.943 161.52C316.977 161.676 317.055 161.82 317.168 161.933C317.281 162.046 317.424 162.124 317.58 162.157C317.887 162.215 318.201 162.215 318.507 162.157C318.643 162.447 318.314 162.756 318.353 163.084C318.395 163.271 318.505 163.436 318.662 163.547C319.02 163.835 319.434 164.046 319.878 164.165C319.794 164.276 319.748 164.411 319.748 164.551C319.748 164.69 319.794 164.826 319.878 164.937C320.034 165.166 320.257 165.341 320.516 165.439C321.152 165.77 321.836 165.998 322.543 166.115C322.462 166.503 322.502 166.908 322.659 167.273C322.729 167.458 322.862 167.613 323.036 167.708C323.209 167.804 323.411 167.834 323.605 167.794C323.779 167.794 323.934 167.601 324.107 167.64C324.216 167.674 324.31 167.742 324.378 167.833C324.7 168.197 324.943 168.624 325.092 169.087C325.139 169.306 325.224 169.515 325.343 169.705C325.521 169.936 325.763 170.111 326.038 170.207C326.405 170.342 326.849 170.458 327.139 170.207C327.234 170.105 327.298 169.979 327.325 169.843C327.353 169.707 327.342 169.565 327.294 169.435C327.196 169.183 327.06 168.949 326.888 168.74C326.984 168.786 327.094 168.795 327.197 168.767C327.3 168.739 327.389 168.674 327.448 168.586C327.525 168.38 327.525 168.154 327.448 167.948C327.218 167.414 326.905 166.919 326.521 166.481C326.502 166.439 326.492 166.393 326.492 166.346C326.492 166.3 326.502 166.254 326.521 166.211C326.533 166.165 326.555 166.123 326.585 166.086C326.615 166.049 326.652 166.019 326.695 165.999C327.023 165.632 326.695 165.033 326.502 164.609C326.309 164.184 325.865 163.701 326.077 163.238C326.19 163.042 326.326 162.861 326.483 162.698C326.695 162.408 326.695 161.887 326.965 161.674C327.097 161.601 327.252 161.58 327.399 161.616C327.546 161.651 327.674 161.741 327.757 161.868C327.95 162.099 328.027 162.408 328.201 162.64C328.545 162.979 328.928 163.277 329.341 163.528C329.63 163.798 329.843 164.184 330.152 164.454C330.246 164.581 330.376 164.676 330.526 164.726C330.675 164.776 330.836 164.779 330.988 164.735C331.139 164.691 331.273 164.601 331.372 164.479C331.472 164.356 331.531 164.206 331.542 164.049C331.573 163.791 331.54 163.529 331.446 163.286C331.351 163.044 331.199 162.828 331.001 162.659C330.849 162.557 330.713 162.433 330.596 162.292C330.532 162.224 330.496 162.135 330.496 162.041C330.496 161.948 330.532 161.858 330.596 161.79C330.672 161.803 330.751 161.791 330.82 161.757C330.89 161.722 330.946 161.666 330.982 161.597C331.001 161.534 331.001 161.467 330.982 161.404C330.946 161.223 330.859 161.055 330.731 160.922C330.731 160.922 330.576 160.767 330.596 160.671C330.576 160.621 330.576 160.566 330.596 160.516C330.789 160.188 331.059 159.898 331.233 159.57C331.369 159.31 331.401 159.007 331.322 158.724C331.243 158.441 331.059 158.198 330.808 158.045C331.195 158.289 331.655 158.388 332.108 158.324C332.56 158.261 332.976 158.039 333.28 157.698C333.874 157.017 334.31 156.213 334.554 155.343C334.69 155.445 334.845 155.52 335.009 155.563C335.174 155.606 335.345 155.616 335.514 155.593C335.683 155.57 335.845 155.513 335.992 155.427C336.138 155.341 336.267 155.227 336.37 155.092C336.472 154.956 336.547 154.801 336.59 154.637C336.633 154.472 336.643 154.301 336.62 154.132C336.597 153.964 336.54 153.802 336.454 153.655C336.368 153.508 336.254 153.38 336.119 153.277H335.964C336.467 153.53 337.009 153.7 337.567 153.779C337.848 153.816 338.134 153.781 338.398 153.676C338.662 153.571 338.894 153.401 339.073 153.18C339.556 152.505 339.305 151.443 339.942 150.903C340.925 151.761 341.993 152.517 343.128 153.161C344.037 153.46 345.028 153.386 345.882 152.955C346.737 152.525 347.385 151.772 347.686 150.864C347.686 150.864 347.686 150.864 347.686 150.748C348.159 151.061 348.7 151.258 349.264 151.321C349.827 151.385 350.398 151.314 350.93 151.115C351.353 150.784 351.656 150.324 351.792 149.804C351.928 149.284 351.89 148.734 351.683 148.239C352.26 148.17 352.794 147.896 353.187 147.468C353.581 147.039 353.807 146.484 353.826 145.903C353.85 145.183 353.633 144.476 353.208 143.895Z" fill="#473F47"/>
<path d="M407.239 390.26C407.239 390.26 409.17 394.121 422.224 391.92C435.278 389.719 441.419 385.646 442.152 383.349C442.41 383.786 442.579 384.27 442.65 384.772C442.72 385.275 442.691 385.786 442.564 386.278C442.436 386.769 442.213 387.23 441.908 387.635C441.602 388.04 441.219 388.381 440.781 388.638C437.518 390.569 424.869 399.256 409.46 393.928C409.46 394.005 407.529 393.464 407.239 390.26Z" fill="#473F47"/>
<path d="M324.841 160.285C324.586 160.294 324.339 160.374 324.127 160.516C323.659 160.824 323.288 161.257 323.056 161.765C322.824 162.274 322.74 162.838 322.814 163.393C322.971 164.513 323.47 165.558 324.243 166.385C324.554 166.787 324.949 167.116 325.401 167.35C326.014 167.602 326.67 167.733 327.332 167.736C327.586 167.794 327.85 167.794 328.105 167.736C328.361 167.595 328.574 167.389 328.724 167.137C328.873 166.886 328.953 166.6 328.954 166.308C329.055 164.914 328.754 163.52 328.085 162.292C327.872 161.898 327.542 161.581 327.139 161.385C326.464 160.852 325.679 160.476 324.841 160.285Z" fill="#C1A7A7"/>
<path d="M311.247 145.517C310.477 147.718 310.104 150.038 310.146 152.37C310.035 153.632 310.2 154.903 310.629 156.096C311.018 156.885 311.511 157.619 312.096 158.277C312.676 158.33 313.26 158.252 313.805 158.048C314.35 157.844 314.842 157.52 315.244 157.099C315.443 156.901 315.589 156.655 315.669 156.385C315.881 155.652 315.379 154.957 314.973 154.3C313.774 152.118 313.489 149.549 314.182 147.157C314.51 145.845 316.808 142.331 313.853 142.891C313.228 143.064 312.658 143.397 312.201 143.858C311.744 144.318 311.415 144.89 311.247 145.517Z" fill="#768386"/>
<path d="M351.49 429.255H349.559C349.302 429.255 349.057 429.153 348.876 428.972C348.695 428.791 348.593 428.546 348.593 428.29C348.593 428.034 348.695 427.788 348.876 427.607C349.057 427.426 349.302 427.324 349.559 427.324H351.49C351.746 427.324 351.991 427.426 352.172 427.607C352.353 427.788 352.455 428.034 352.455 428.29C352.455 428.546 352.353 428.791 352.172 428.972C351.991 429.153 351.746 429.255 351.49 429.255ZM361.145 429.255C360.889 429.255 360.643 429.153 360.462 428.972C360.281 428.791 360.179 428.546 360.179 428.29C360.179 428.034 360.281 427.788 360.462 427.607C360.643 427.426 360.889 427.324 361.145 427.324H363.076C363.332 427.324 363.578 427.426 363.759 427.607C363.94 427.788 364.041 428.034 364.041 428.29C364.041 428.546 363.94 428.791 363.759 428.972C363.578 429.153 363.332 429.255 363.076 429.255H361.145ZM339.903 429.023H337.972C337.845 429.018 337.721 428.988 337.606 428.935C337.49 428.882 337.387 428.807 337.301 428.713C337.215 428.62 337.148 428.511 337.104 428.392C337.06 428.273 337.04 428.146 337.045 428.019C337.043 427.897 337.065 427.775 337.111 427.662C337.156 427.548 337.224 427.445 337.311 427.358C337.398 427.272 337.501 427.204 337.614 427.158C337.728 427.112 337.85 427.09 337.972 427.093H339.903C340.159 427.093 340.405 427.194 340.586 427.375C340.767 427.556 340.869 427.802 340.869 428.058C340.869 428.314 340.767 428.559 340.586 428.74C340.405 428.921 340.159 429.023 339.903 429.023ZM372.731 429.023C372.475 429.023 372.229 428.921 372.048 428.74C371.867 428.559 371.766 428.314 371.766 428.058C371.766 427.802 371.867 427.556 372.048 427.375C372.229 427.194 372.475 427.093 372.731 427.093H374.662C374.916 427.092 375.16 427.187 375.346 427.359C375.533 427.531 375.647 427.767 375.666 428.019C375.672 428.146 375.652 428.273 375.608 428.392C375.564 428.511 375.497 428.62 375.411 428.713C375.325 428.807 375.221 428.882 375.106 428.935C374.991 428.988 374.866 429.018 374.739 429.023H372.808H372.731ZM328.317 428.521L326.386 428.405C326.259 428.398 326.135 428.366 326.021 428.31C325.906 428.255 325.804 428.177 325.72 428.082C325.635 427.987 325.571 427.876 325.529 427.756C325.488 427.636 325.471 427.509 325.478 427.382C325.478 427.26 325.503 427.139 325.551 427.026C325.599 426.913 325.669 426.811 325.758 426.727C325.846 426.642 325.951 426.576 326.065 426.533C326.18 426.489 326.302 426.47 326.425 426.475L328.356 426.591C328.612 426.591 328.857 426.693 329.038 426.874C329.219 427.055 329.321 427.3 329.321 427.556C329.321 427.812 329.219 428.058 329.038 428.239C328.857 428.42 328.612 428.521 328.356 428.521H328.317ZM384.317 428.521C384.072 428.517 383.838 428.422 383.659 428.254C383.481 428.086 383.371 427.858 383.352 427.614C383.346 427.36 383.436 427.114 383.605 426.924C383.773 426.734 384.007 426.615 384.26 426.591L386.191 426.475C386.444 426.469 386.691 426.559 386.881 426.727C387.071 426.896 387.19 427.13 387.214 427.382C387.222 427.509 387.205 427.636 387.163 427.756C387.122 427.876 387.057 427.987 386.973 428.082C386.888 428.177 386.786 428.255 386.672 428.31C386.557 428.366 386.433 428.398 386.306 428.405L384.375 428.521H384.317ZM316.731 427.749L314.8 427.575C314.673 427.566 314.549 427.531 314.436 427.473C314.322 427.415 314.221 427.336 314.139 427.239C314.056 427.142 313.993 427.03 313.954 426.909C313.915 426.787 313.901 426.66 313.911 426.533C313.945 426.28 314.074 426.05 314.271 425.889C314.468 425.728 314.719 425.647 314.973 425.664L316.905 425.819C317.161 425.819 317.406 425.92 317.587 426.101C317.768 426.282 317.87 426.528 317.87 426.784C317.87 427.04 317.768 427.285 317.587 427.466C317.406 427.647 317.161 427.749 316.905 427.749H316.731ZM395.904 427.749C395.648 427.749 395.402 427.647 395.221 427.466C395.04 427.285 394.938 427.04 394.938 426.784C394.938 426.528 395.04 426.282 395.221 426.101C395.402 425.92 395.648 425.819 395.904 425.819L397.835 425.664C398.087 425.648 398.336 425.729 398.53 425.89C398.724 426.052 398.848 426.282 398.878 426.533C398.891 426.657 398.879 426.783 398.844 426.903C398.808 427.023 398.749 427.134 398.67 427.231C398.591 427.328 398.494 427.409 398.384 427.468C398.273 427.527 398.152 427.563 398.028 427.575L396.097 427.749H395.904ZM305.28 426.687H305.164L303.233 426.475C302.977 426.444 302.743 426.313 302.584 426.11C302.425 425.908 302.352 425.65 302.383 425.394C302.414 425.138 302.545 424.905 302.748 424.745C302.951 424.586 303.208 424.514 303.464 424.545L305.395 424.757C305.652 424.757 305.897 424.859 306.078 425.04C306.259 425.221 306.361 425.466 306.361 425.722C306.361 425.978 306.259 426.224 306.078 426.405C305.897 426.586 305.652 426.687 305.395 426.687H305.28ZM407.432 426.687C407.176 426.687 406.93 426.586 406.749 426.405C406.568 426.224 406.467 425.978 406.467 425.722C406.467 425.466 406.568 425.221 406.749 425.04C406.93 424.859 407.176 424.757 407.432 424.757L409.363 424.545C409.611 424.517 409.859 424.586 410.057 424.737C410.255 424.888 410.387 425.109 410.425 425.355C410.452 425.609 410.378 425.862 410.219 426.061C410.06 426.26 409.829 426.388 409.576 426.417L407.645 426.629L407.432 426.687ZM293.771 425.336H293.635L291.704 425.066C291.578 425.049 291.455 425.008 291.344 424.944C291.234 424.881 291.136 424.796 291.058 424.694C290.98 424.593 290.923 424.477 290.89 424.354C290.856 424.231 290.848 424.102 290.864 423.975C290.881 423.848 290.922 423.726 290.986 423.615C291.05 423.504 291.135 423.407 291.236 423.329C291.337 423.251 291.453 423.194 291.576 423.161C291.7 423.127 291.829 423.119 291.955 423.135L293.886 423.406C294.134 423.435 294.361 423.561 294.516 423.756C294.672 423.951 294.744 424.2 294.717 424.448C294.65 424.655 294.518 424.834 294.34 424.96C294.163 425.085 293.949 425.149 293.732 425.143L293.771 425.336ZM418.941 425.336C418.814 425.345 418.687 425.329 418.567 425.288C418.446 425.248 418.335 425.184 418.239 425.101C418.045 424.933 417.926 424.694 417.908 424.438C417.89 424.182 417.975 423.93 418.143 423.736C418.311 423.542 418.55 423.423 418.806 423.406L420.737 423.155C420.86 423.135 420.986 423.141 421.107 423.17C421.228 423.199 421.342 423.252 421.442 423.326C421.543 423.4 421.627 423.492 421.692 423.599C421.757 423.705 421.8 423.823 421.818 423.946C421.852 424.199 421.786 424.455 421.635 424.66C421.484 424.865 421.259 425.004 421.007 425.046L419.076 425.297L418.941 425.336ZM282.3 423.695H282.146L280.215 423.386C280.077 423.378 279.942 423.34 279.82 423.276C279.698 423.212 279.59 423.123 279.505 423.015C279.419 422.907 279.357 422.782 279.323 422.648C279.288 422.514 279.283 422.375 279.306 422.239C279.329 422.103 279.38 421.973 279.457 421.858C279.533 421.743 279.633 421.646 279.75 421.572C279.867 421.498 279.997 421.45 280.134 421.43C280.271 421.41 280.41 421.419 280.543 421.456L282.474 421.784C282.597 421.803 282.715 421.846 282.822 421.91C282.928 421.975 283.021 422.06 283.094 422.16C283.168 422.261 283.221 422.375 283.25 422.496C283.28 422.617 283.285 422.742 283.266 422.865C283.19 423.064 283.05 423.233 282.869 423.345C282.687 423.457 282.474 423.505 282.261 423.483L282.3 423.695ZM430.392 423.695C430.265 423.705 430.138 423.69 430.017 423.651C429.896 423.612 429.784 423.55 429.687 423.467C429.59 423.385 429.51 423.284 429.453 423.171C429.395 423.057 429.36 422.934 429.349 422.807C429.339 422.68 429.354 422.553 429.393 422.432C429.433 422.311 429.495 422.199 429.578 422.102C429.66 422.005 429.761 421.926 429.874 421.868C429.987 421.81 430.111 421.775 430.238 421.765L432.169 421.437C432.42 421.397 432.676 421.458 432.882 421.607C433.087 421.755 433.227 421.978 433.27 422.228C433.292 422.354 433.289 422.482 433.261 422.607C433.233 422.731 433.181 422.849 433.107 422.953C433.033 423.057 432.94 423.145 432.832 423.213C432.724 423.281 432.604 423.327 432.478 423.348L430.547 423.657L430.392 423.695ZM270.888 421.765H270.714L268.783 421.398C268.659 421.373 268.54 421.323 268.435 421.252C268.33 421.181 268.24 421.09 268.17 420.984C268.1 420.879 268.052 420.76 268.028 420.636C268.004 420.511 268.004 420.383 268.03 420.259C268.05 420.136 268.096 420.019 268.163 419.914C268.23 419.809 268.317 419.719 268.42 419.649C268.523 419.579 268.639 419.53 268.761 419.505C268.883 419.481 269.008 419.481 269.13 419.506L271.061 419.873C271.186 419.898 271.304 419.948 271.409 420.019C271.514 420.09 271.604 420.181 271.674 420.286C271.744 420.392 271.792 420.511 271.816 420.635C271.841 420.76 271.84 420.888 271.814 421.012C271.717 421.185 271.567 421.322 271.387 421.405C271.207 421.489 271.005 421.513 270.81 421.475L270.888 421.765ZM441.805 421.765C441.581 421.768 441.364 421.693 441.19 421.552C441.017 421.41 440.9 421.212 440.859 420.993C440.813 420.739 440.868 420.479 441.013 420.266C441.157 420.053 441.379 419.905 441.631 419.854L443.562 419.487C443.813 419.442 444.071 419.497 444.281 419.642C444.491 419.787 444.635 420.008 444.682 420.259C444.71 420.377 444.715 420.499 444.695 420.619C444.675 420.739 444.632 420.853 444.567 420.956C444.502 421.059 444.417 421.147 444.318 421.216C444.218 421.286 444.106 421.334 443.987 421.359L442.056 421.745L441.805 421.765ZM259.514 419.216H259.301L257.37 418.772C257.243 418.745 257.123 418.692 257.017 418.618C256.91 418.543 256.82 418.449 256.75 418.34C256.68 418.23 256.632 418.108 256.609 417.98C256.587 417.853 256.589 417.722 256.617 417.595C256.645 417.468 256.698 417.348 256.772 417.242C256.846 417.135 256.941 417.045 257.05 416.975C257.16 416.905 257.282 416.857 257.409 416.834C257.537 416.811 257.668 416.814 257.795 416.842L259.726 417.267C259.851 417.294 259.969 417.346 260.073 417.419C260.177 417.492 260.266 417.585 260.334 417.693C260.403 417.801 260.449 417.921 260.47 418.046C260.492 418.172 260.488 418.301 260.46 418.425C260.423 418.648 260.307 418.851 260.134 418.996C259.96 419.141 259.74 419.22 259.514 419.216ZM453.043 419.004C452.917 419.017 452.788 419.006 452.666 418.969C452.544 418.932 452.43 418.872 452.331 418.791C452.232 418.71 452.151 418.611 452.091 418.498C452.031 418.386 451.993 418.262 451.981 418.135C451.965 418.01 451.975 417.882 452.009 417.76C452.043 417.638 452.102 417.524 452.181 417.425C452.26 417.325 452.359 417.243 452.47 417.183C452.582 417.123 452.705 417.086 452.831 417.074L454.762 416.63C454.889 416.602 455.02 416.599 455.148 416.622C455.276 416.645 455.398 416.692 455.507 416.762C455.616 416.832 455.711 416.923 455.785 417.029C455.86 417.136 455.912 417.256 455.94 417.383C455.968 417.509 455.971 417.64 455.948 417.768C455.925 417.896 455.877 418.018 455.807 418.127C455.738 418.237 455.647 418.331 455.54 418.405C455.434 418.48 455.314 418.532 455.187 418.56L453.256 418.985L453.043 419.004ZM248.159 416.398C248.083 416.418 248.003 416.418 247.927 416.398L245.996 415.915C245.74 415.847 245.521 415.682 245.384 415.455C245.247 415.229 245.204 414.957 245.263 414.699C245.331 414.444 245.497 414.226 245.724 414.093C245.952 413.959 246.223 413.92 246.479 413.985L248.41 414.487C248.533 414.518 248.649 414.574 248.751 414.65C248.852 414.726 248.938 414.822 249.002 414.931C249.067 415.041 249.109 415.162 249.127 415.288C249.145 415.413 249.137 415.542 249.105 415.664C249.057 415.863 248.947 416.041 248.79 416.173C248.634 416.305 248.44 416.383 248.236 416.398H248.159ZM464.301 416.282C464.045 416.315 463.787 416.246 463.582 416.088C463.377 415.931 463.244 415.698 463.211 415.442C463.177 415.186 463.247 414.928 463.405 414.723C463.562 414.519 463.794 414.385 464.051 414.352L465.982 413.869C466.108 413.837 466.24 413.831 466.369 413.85C466.499 413.87 466.623 413.914 466.735 413.981C466.847 414.048 466.945 414.137 467.023 414.242C467.1 414.347 467.157 414.466 467.188 414.593C467.22 414.72 467.227 414.852 467.207 414.981C467.188 415.11 467.144 415.234 467.076 415.346C467.009 415.458 466.92 415.556 466.815 415.634C466.71 415.712 466.591 415.768 466.464 415.8L464.533 416.282H464.301ZM236.998 413.29H236.766L234.835 412.73C234.712 412.697 234.597 412.639 234.496 412.56C234.396 412.482 234.313 412.383 234.251 412.272C234.19 412.16 234.152 412.037 234.139 411.91C234.127 411.783 234.14 411.655 234.178 411.533C234.258 411.29 234.43 411.087 234.657 410.968C234.884 410.849 235.149 410.823 235.395 410.896L237.326 411.437C237.453 411.454 237.575 411.497 237.685 411.562C237.796 411.627 237.892 411.713 237.969 411.815C238.046 411.917 238.102 412.034 238.135 412.157C238.167 412.281 238.174 412.41 238.156 412.537C238.139 412.664 238.096 412.786 238.031 412.896C237.966 413.007 237.88 413.103 237.778 413.18C237.676 413.257 237.559 413.313 237.435 413.345C237.311 413.378 237.182 413.385 237.056 413.367L236.998 413.29ZM475.463 413.155C475.257 413.156 475.055 413.091 474.888 412.97C474.721 412.848 474.598 412.676 474.536 412.479C474.463 412.233 474.489 411.969 474.608 411.742C474.727 411.515 474.93 411.343 475.173 411.263L477.104 410.723C477.345 410.649 477.605 410.673 477.829 410.788C478.052 410.903 478.222 411.102 478.302 411.34C478.374 411.583 478.348 411.845 478.229 412.069C478.109 412.293 477.907 412.461 477.664 412.537L475.733 413.097H475.54L475.463 413.155ZM225.952 409.777H225.643L223.712 409.14C223.456 409.076 223.236 408.912 223.1 408.686C222.964 408.46 222.924 408.189 222.988 407.933C223.052 407.677 223.215 407.457 223.441 407.321C223.668 407.185 223.939 407.145 224.195 407.209H224.349L226.164 407.827C226.404 407.91 226.601 408.085 226.713 408.312C226.825 408.54 226.843 408.802 226.763 409.043C226.697 409.212 226.583 409.358 226.436 409.464C226.289 409.57 226.114 409.632 225.933 409.641L225.952 409.777ZM486.644 409.564C486.403 409.574 486.167 409.495 485.981 409.342C485.795 409.189 485.671 408.974 485.633 408.736C485.595 408.498 485.645 408.255 485.775 408.052C485.904 407.849 486.103 407.7 486.335 407.634L488.15 407.016C488.265 406.97 488.389 406.947 488.513 406.949C488.637 406.951 488.759 406.978 488.873 407.029C488.986 407.079 489.088 407.152 489.173 407.243C489.258 407.333 489.324 407.44 489.367 407.557C489.447 407.8 489.43 408.065 489.318 408.296C489.206 408.527 489.009 408.705 488.768 408.792L486.837 409.429L486.644 409.564ZM215.138 405.703H214.791L212.995 404.989C212.762 404.898 212.574 404.721 212.47 404.494C212.365 404.267 212.353 404.009 212.435 403.773C212.529 403.539 212.712 403.352 212.943 403.251C213.174 403.15 213.435 403.143 213.671 403.232L215.466 403.947C215.704 404.038 215.895 404.218 216 404.449C216.105 404.681 216.114 404.944 216.026 405.182C215.96 405.371 215.837 405.535 215.675 405.652C215.513 405.769 215.319 405.834 215.119 405.838L215.138 405.703ZM497.458 405.703C497.264 405.704 497.075 405.647 496.914 405.541C496.752 405.434 496.626 405.283 496.55 405.105C496.46 404.866 496.466 404.602 496.567 404.368C496.668 404.134 496.856 403.949 497.091 403.85L498.867 403.136C499.106 403.046 499.37 403.052 499.604 403.153C499.838 403.254 500.024 403.441 500.122 403.676C500.17 403.794 500.193 403.92 500.191 404.047C500.189 404.174 500.163 404.299 500.112 404.416C500.062 404.532 499.989 404.638 499.898 404.726C499.807 404.815 499.7 404.884 499.582 404.931L497.786 405.645C497.68 405.681 497.569 405.701 497.458 405.703ZM204.44 401.437C204.312 401.456 204.182 401.456 204.054 401.437L202.277 400.646C202.163 400.595 202.059 400.523 201.973 400.432C201.887 400.342 201.819 400.235 201.774 400.119C201.729 400.002 201.708 399.878 201.712 399.753C201.715 399.628 201.743 399.505 201.795 399.391C201.9 399.158 202.093 398.977 202.332 398.886C202.571 398.796 202.836 398.804 203.069 398.908L204.826 399.7C205.059 399.805 205.241 399.998 205.331 400.237C205.422 400.476 205.414 400.741 205.309 400.974C205.21 401.115 205.076 401.228 204.921 401.302C204.765 401.377 204.593 401.41 204.421 401.398L204.44 401.437ZM508.136 401.244C507.951 401.243 507.769 401.188 507.615 401.085C507.46 400.982 507.339 400.836 507.267 400.665C507.161 400.439 507.148 400.181 507.231 399.946C507.314 399.711 507.487 399.519 507.711 399.41L509.449 398.619C509.681 398.511 509.945 398.497 510.186 398.579C510.427 398.662 510.627 398.835 510.743 399.063C510.844 399.299 510.849 399.565 510.76 399.805C510.67 400.046 510.491 400.243 510.26 400.356L508.503 401.147C508.37 401.176 508.231 401.176 508.098 401.147L508.136 401.244ZM193.993 396.418H193.549L191.83 395.511C191.608 395.384 191.444 395.177 191.372 394.932C191.3 394.687 191.326 394.424 191.444 394.198C191.501 394.087 191.58 393.989 191.675 393.91C191.77 393.83 191.881 393.771 192 393.735C192.119 393.699 192.243 393.687 192.367 393.7C192.491 393.714 192.61 393.751 192.719 393.812L194.418 394.7C194.609 394.783 194.764 394.931 194.855 395.119C194.946 395.306 194.966 395.52 194.912 395.721C194.858 395.922 194.734 396.098 194.562 396.215C194.39 396.332 194.181 396.384 193.974 396.36L193.993 396.418ZM518.583 396.205C518.456 396.234 518.325 396.237 518.197 396.214C518.069 396.192 517.947 396.144 517.838 396.074C517.728 396.004 517.633 395.913 517.559 395.807C517.485 395.7 517.433 395.58 517.405 395.453C517.374 395.327 517.368 395.196 517.388 395.069C517.408 394.941 517.454 394.818 517.523 394.708C517.591 394.598 517.681 394.503 517.787 394.429C517.893 394.355 518.013 394.302 518.139 394.275L519.838 393.387C519.947 393.327 520.067 393.289 520.19 393.276C520.314 393.262 520.439 393.274 520.558 393.31C520.676 393.346 520.787 393.406 520.882 393.485C520.978 393.565 521.056 393.663 521.113 393.773C521.232 393.994 521.26 394.253 521.192 394.494C521.123 394.736 520.963 394.941 520.746 395.067L519.027 395.974C518.891 396.054 518.74 396.106 518.583 396.128V396.205ZM183.875 390.781C183.698 390.785 183.523 390.738 183.372 390.646L181.731 389.623C181.527 389.469 181.391 389.242 181.352 388.99C181.312 388.738 181.372 388.48 181.519 388.271C181.654 388.087 181.851 387.956 182.074 387.903C182.297 387.85 182.531 387.878 182.735 387.982L184.377 388.986C184.486 389.051 184.582 389.138 184.657 389.24C184.733 389.343 184.788 389.459 184.819 389.583C184.849 389.707 184.855 389.836 184.835 389.962C184.816 390.088 184.771 390.209 184.705 390.318C184.613 390.45 184.488 390.558 184.343 390.628C184.197 390.699 184.036 390.732 183.875 390.723V390.781ZM528.683 390.53C528.516 390.531 528.352 390.489 528.207 390.408C528.061 390.326 527.939 390.209 527.852 390.067C527.723 389.846 527.685 389.583 527.746 389.334C527.807 389.085 527.963 388.87 528.181 388.735L529.822 387.731C530.05 387.616 530.314 387.597 530.557 387.676C530.799 387.756 531 387.928 531.116 388.155C531.22 388.36 531.248 388.594 531.195 388.817C531.141 389.04 531.011 389.236 530.826 389.372L529.185 390.395C529.021 390.443 528.847 390.443 528.683 390.395V390.53ZM174.2 384.352C174 384.352 173.805 384.291 173.64 384.179L172.076 383.02C171.883 382.88 171.748 382.673 171.699 382.439C171.65 382.205 171.689 381.961 171.809 381.755C171.929 381.548 172.122 381.393 172.349 381.321C172.577 381.248 172.824 381.262 173.041 381.36L173.215 381.476L174.76 382.615C174.967 382.756 175.11 382.973 175.157 383.22C175.204 383.466 175.152 383.72 175.011 383.928C174.92 384.059 174.799 384.166 174.658 384.24C174.517 384.314 174.359 384.353 174.2 384.352ZM538.338 384.082C538.13 384.088 537.926 384.027 537.756 383.907C537.586 383.788 537.459 383.617 537.394 383.42C537.329 383.222 537.329 383.009 537.395 382.812C537.461 382.615 537.588 382.444 537.759 382.326L539.303 381.187C539.51 381.038 539.766 380.975 540.018 381.011C540.27 381.047 540.499 381.179 540.655 381.38C540.809 381.584 540.875 381.842 540.839 382.095C540.802 382.349 540.667 382.577 540.462 382.731C539.96 383.117 539.419 383.522 538.898 383.889C538.741 384.02 538.542 384.089 538.338 384.082ZM165.143 377.152C164.91 377.138 164.686 377.05 164.506 376.901L163.058 375.588C162.881 375.408 162.782 375.165 162.782 374.913C162.782 374.66 162.881 374.417 163.058 374.237C163.148 374.146 163.254 374.075 163.372 374.026C163.49 373.977 163.616 373.951 163.743 373.951C163.871 373.951 163.997 373.977 164.115 374.026C164.232 374.075 164.339 374.146 164.429 374.237L165.858 375.511C166.051 375.676 166.172 375.91 166.193 376.163C166.215 376.416 166.136 376.667 165.974 376.862C165.878 376.973 165.759 377.061 165.626 377.121C165.493 377.181 165.348 377.212 165.201 377.21L165.143 377.152ZM547.356 376.746C547.22 376.747 547.086 376.719 546.962 376.662C546.839 376.605 546.729 376.522 546.641 376.418C546.466 376.241 546.367 376.002 546.367 375.752C546.367 375.503 546.466 375.263 546.641 375.086L548.051 373.793C548.141 373.702 548.248 373.631 548.365 373.582C548.483 373.533 548.609 373.507 548.737 373.507C548.864 373.507 548.99 373.533 549.108 373.582C549.226 373.631 549.332 373.702 549.422 373.793C549.512 373.881 549.583 373.986 549.632 374.102C549.681 374.218 549.706 374.343 549.706 374.469C549.706 374.594 549.681 374.719 549.632 374.835C549.583 374.951 549.512 375.056 549.422 375.144L549.326 375.241C548.862 375.685 548.379 376.129 547.877 376.553C547.729 376.672 547.546 376.74 547.356 376.746ZM156.994 369.025C156.856 369.023 156.719 368.994 156.593 368.937C156.467 368.881 156.354 368.799 156.261 368.696L155.005 367.191C154.916 367.104 154.845 367.001 154.796 366.886C154.748 366.772 154.723 366.649 154.723 366.525C154.723 366.4 154.748 366.277 154.796 366.163C154.845 366.049 154.916 365.945 155.005 365.859C155.208 365.702 155.463 365.629 155.718 365.654C155.973 365.679 156.208 365.801 156.376 365.994L157.612 367.442C157.79 367.625 157.89 367.871 157.89 368.127C157.89 368.383 157.79 368.629 157.612 368.812C157.435 368.949 157.218 369.023 156.994 369.025ZM555.389 368.581C555.133 368.581 554.887 368.479 554.706 368.298C554.525 368.117 554.424 367.871 554.424 367.615C554.439 367.391 554.52 367.177 554.655 366.998L555.891 365.531C555.968 365.433 556.064 365.351 556.173 365.29C556.282 365.23 556.401 365.191 556.525 365.177C556.649 365.162 556.775 365.172 556.894 365.207C557.014 365.241 557.126 365.299 557.224 365.376C557.322 365.453 557.403 365.549 557.464 365.658C557.525 365.767 557.563 365.886 557.578 366.01C557.592 366.134 557.582 366.259 557.548 366.379C557.513 366.499 557.456 366.611 557.378 366.708L556.123 368.214C556.035 368.325 555.924 368.416 555.797 368.479C555.67 368.542 555.531 368.577 555.389 368.581ZM150.081 359.623C149.915 359.624 149.75 359.582 149.605 359.501C149.459 359.42 149.337 359.302 149.251 359.16L148.266 357.461C148.21 357.347 148.177 357.223 148.169 357.096C148.161 356.97 148.178 356.843 148.219 356.722C148.261 356.602 148.325 356.491 148.409 356.396C148.494 356.301 148.596 356.223 148.71 356.168C148.922 356.06 149.167 356.036 149.396 356.1C149.625 356.164 149.821 356.313 149.946 356.515C150.255 357.075 150.583 357.616 150.912 358.176C151.04 358.394 151.077 358.653 151.016 358.899C150.955 359.145 150.799 359.356 150.583 359.488C150.452 359.562 150.308 359.608 150.158 359.623H150.081ZM562.167 359.218C561.99 359.222 561.816 359.175 561.665 359.083C561.449 358.951 561.294 358.739 561.232 358.494C561.171 358.248 561.208 357.988 561.337 357.77C561.646 357.21 561.974 356.67 562.264 356.11C562.324 355.998 562.407 355.9 562.506 355.82C562.605 355.74 562.718 355.681 562.84 355.645C562.962 355.609 563.09 355.598 563.216 355.611C563.343 355.625 563.465 355.663 563.577 355.724C563.688 355.785 563.787 355.867 563.867 355.966C563.946 356.065 564.006 356.178 564.042 356.3C564.078 356.422 564.089 356.55 564.076 356.676C564.062 356.803 564.024 356.925 563.963 357.037C563.654 357.616 563.326 358.176 562.997 358.735C562.918 358.868 562.808 358.981 562.678 359.065C562.547 359.149 562.399 359.201 562.244 359.218H562.167ZM145.215 349.18C145.011 349.182 144.811 349.12 144.645 349.002C144.478 348.884 144.353 348.717 144.288 348.523C144.076 347.886 143.882 347.268 143.709 346.593C143.643 346.334 143.681 346.061 143.815 345.83C143.948 345.599 144.167 345.43 144.423 345.357C144.679 345.293 144.95 345.331 145.178 345.465C145.406 345.599 145.572 345.817 145.64 346.072C145.814 346.67 146.007 347.268 146.2 347.867C146.28 348.102 146.264 348.36 146.156 348.584C146.048 348.808 145.855 348.981 145.62 349.064C145.531 349.113 145.432 349.146 145.331 349.16L145.215 349.18ZM566.975 348.716H566.686C566.448 348.64 566.249 348.475 566.13 348.256C566.011 348.036 565.982 347.779 566.048 347.539C566.222 346.94 566.415 346.342 566.57 345.724C566.638 345.469 566.804 345.251 567.032 345.117C567.259 344.984 567.53 344.945 567.786 345.01C568.043 345.082 568.261 345.252 568.395 345.482C568.528 345.713 568.566 345.987 568.501 346.245L567.941 348.176C567.855 348.354 567.716 348.501 567.543 348.598C567.371 348.695 567.172 348.736 566.975 348.716ZM143.091 337.886C142.841 337.887 142.601 337.79 142.421 337.618C142.241 337.445 142.135 337.209 142.125 336.96V335.029C142.13 334.778 142.231 334.538 142.407 334.359C142.582 334.179 142.82 334.074 143.071 334.064C143.323 334.069 143.563 334.169 143.742 334.345C143.922 334.521 144.027 334.759 144.037 335.01V336.941C144.045 337.065 144.028 337.189 143.988 337.307C143.947 337.425 143.884 337.534 143.801 337.627C143.719 337.72 143.619 337.796 143.507 337.851C143.395 337.905 143.273 337.937 143.149 337.944L143.091 337.886ZM569.08 337.404C568.822 337.389 568.581 337.273 568.407 337.082C568.234 336.89 568.143 336.639 568.153 336.381V334.45C568.153 334.194 568.255 333.949 568.436 333.768C568.617 333.587 568.863 333.485 569.119 333.485C569.375 333.485 569.621 333.587 569.802 333.768C569.983 333.949 570.084 334.194 570.084 334.45V336.381C570.092 336.507 570.075 336.635 570.034 336.755C569.992 336.875 569.927 336.986 569.843 337.081C569.759 337.176 569.657 337.253 569.542 337.309C569.428 337.364 569.304 337.396 569.177 337.404H569.08ZM569.08 332.597C568.835 332.593 568.601 332.498 568.422 332.33C568.243 332.162 568.134 331.934 568.115 331.69C568.093 331.043 568.035 330.399 567.941 329.759C567.914 329.501 567.99 329.242 568.153 329.04C568.315 328.837 568.552 328.707 568.81 328.678C568.937 328.665 569.065 328.677 569.187 328.713C569.31 328.75 569.423 328.81 569.522 328.891C569.621 328.972 569.703 329.071 569.763 329.184C569.823 329.297 569.86 329.42 569.872 329.547C569.872 330.184 570.007 330.84 570.046 331.477C570.056 331.604 570.042 331.732 570.003 331.853C569.964 331.974 569.901 332.086 569.819 332.183C569.736 332.28 569.635 332.36 569.522 332.418C569.408 332.475 569.284 332.51 569.158 332.52L569.08 332.597ZM144.076 326.4H143.863C143.74 326.377 143.623 326.33 143.519 326.261C143.415 326.191 143.326 326.102 143.257 325.997C143.189 325.892 143.142 325.775 143.12 325.652C143.098 325.529 143.101 325.402 143.129 325.281C143.265 324.624 143.419 323.987 143.593 323.35C143.624 323.23 143.679 323.116 143.755 323.017C143.83 322.918 143.924 322.834 144.032 322.772C144.139 322.709 144.258 322.668 144.382 322.651C144.505 322.635 144.631 322.642 144.751 322.674C144.997 322.742 145.205 322.904 145.332 323.124C145.458 323.345 145.492 323.606 145.427 323.852C145.273 324.45 145.118 325.068 144.983 325.686C144.932 325.888 144.815 326.068 144.651 326.198C144.487 326.327 144.285 326.398 144.076 326.4ZM566.763 321.323C566.564 321.316 566.371 321.25 566.209 321.133C566.047 321.016 565.924 320.854 565.855 320.667C565.662 320.068 565.431 319.47 565.218 318.891C565.171 318.773 565.148 318.647 565.15 318.52C565.151 318.393 565.178 318.268 565.228 318.151C565.278 318.035 565.351 317.929 565.442 317.841C565.533 317.752 565.641 317.683 565.759 317.636C565.878 317.589 566.005 317.567 566.133 317.57C566.261 317.573 566.387 317.602 566.503 317.654C566.62 317.706 566.726 317.78 566.813 317.873C566.901 317.967 566.969 318.076 567.014 318.196C567.246 318.794 567.477 319.412 567.69 320.126C567.777 320.367 567.765 320.632 567.656 320.864C567.547 321.096 567.351 321.275 567.111 321.362C566.984 321.391 566.851 321.391 566.724 321.362L566.763 321.323ZM147.899 315.532C147.76 315.57 147.613 315.57 147.474 315.532C147.25 315.423 147.077 315.231 146.994 314.996C146.911 314.761 146.924 314.502 147.03 314.277C147.3 313.698 147.609 313.119 147.918 312.54C147.975 312.427 148.055 312.327 148.151 312.245C148.247 312.163 148.359 312.102 148.48 312.064C148.6 312.026 148.727 312.013 148.853 312.025C148.979 312.037 149.101 312.074 149.212 312.134C149.434 312.26 149.599 312.468 149.671 312.712C149.743 312.957 149.717 313.221 149.598 313.447L148.729 315.126C148.643 315.268 148.521 315.384 148.375 315.462C148.229 315.54 148.065 315.577 147.899 315.57V315.532ZM561.8 310.899C561.638 310.902 561.478 310.863 561.335 310.785C561.193 310.707 561.074 310.593 560.989 310.455C560.661 309.914 560.313 309.374 559.966 308.852C559.825 308.637 559.774 308.374 559.825 308.122C559.875 307.869 560.023 307.646 560.236 307.501C560.451 307.363 560.712 307.316 560.962 307.371C561.212 307.425 561.43 307.576 561.568 307.791C561.935 308.331 562.283 308.891 562.631 309.432C562.697 309.54 562.741 309.661 562.761 309.787C562.78 309.913 562.775 310.042 562.744 310.166C562.714 310.29 562.659 310.406 562.583 310.509C562.507 310.612 562.412 310.698 562.302 310.764C562.134 310.865 561.938 310.912 561.742 310.899H561.8ZM154.001 305.744C153.79 305.742 153.585 305.667 153.422 305.532C153.321 305.458 153.236 305.364 153.172 305.257C153.107 305.149 153.065 305.03 153.047 304.906C153.029 304.782 153.036 304.656 153.067 304.535C153.098 304.414 153.153 304.3 153.229 304.2L154.426 302.675C154.516 302.584 154.623 302.513 154.74 302.464C154.858 302.415 154.984 302.389 155.112 302.389C155.239 302.389 155.365 302.415 155.483 302.464C155.601 302.513 155.707 302.584 155.797 302.675C155.958 302.834 156.06 303.044 156.084 303.269C156.109 303.494 156.055 303.72 155.932 303.91L154.754 305.416C154.658 305.543 154.531 305.644 154.387 305.712C154.242 305.779 154.083 305.81 153.924 305.802L154.001 305.744ZM554.906 301.632C554.768 301.631 554.631 301.601 554.505 301.545C554.379 301.489 554.266 301.407 554.173 301.304C553.767 300.841 553.342 300.358 552.898 299.895C552.812 299.801 552.745 299.691 552.701 299.572C552.657 299.452 552.638 299.325 552.643 299.198C552.648 299.07 552.679 298.946 552.733 298.83C552.786 298.714 552.862 298.611 552.956 298.524C553.05 298.438 553.16 298.371 553.279 298.328C553.399 298.284 553.526 298.264 553.654 298.27C553.781 298.275 553.906 298.305 554.021 298.359C554.137 298.413 554.241 298.489 554.327 298.582L555.621 300.03C555.711 300.12 555.783 300.227 555.832 300.344C555.881 300.462 555.906 300.588 555.906 300.716C555.906 300.843 555.881 300.969 555.832 301.087C555.783 301.204 555.711 301.311 555.621 301.401C555.514 301.49 555.391 301.556 555.258 301.596C555.126 301.636 554.986 301.648 554.848 301.632H554.906ZM161.687 297.077C161.498 297.078 161.314 297.024 161.155 296.922C160.997 296.819 160.873 296.673 160.797 296.5C160.721 296.328 160.697 296.137 160.728 295.951C160.759 295.766 160.844 295.593 160.972 295.455C161.416 294.992 161.899 294.548 162.363 294.104C162.452 294.013 162.559 293.941 162.677 293.892C162.795 293.843 162.921 293.818 163.048 293.818C163.176 293.818 163.302 293.843 163.419 293.892C163.537 293.941 163.644 294.013 163.734 294.104C163.909 294.281 164.008 294.52 164.008 294.77C164.008 295.019 163.909 295.259 163.734 295.436L162.363 296.768C162.269 296.873 162.152 296.956 162.022 297.009C161.891 297.063 161.75 297.086 161.61 297.077H161.687ZM546.699 293.486C546.464 293.481 546.238 293.392 546.062 293.235L544.614 292C544.419 291.831 544.298 291.594 544.277 291.338C544.255 291.082 544.335 290.827 544.498 290.629C544.669 290.439 544.906 290.321 545.161 290.299C545.415 290.278 545.669 290.354 545.869 290.513L547.337 291.787C547.528 291.958 547.646 292.197 547.664 292.453C547.682 292.709 547.599 292.962 547.433 293.158C547.336 293.271 547.214 293.36 547.077 293.417C546.939 293.474 546.79 293.497 546.641 293.486H546.699ZM170.338 289.471C170.083 289.461 169.843 289.353 169.666 289.169C169.49 288.985 169.391 288.741 169.392 288.486C169.4 288.345 169.437 288.208 169.5 288.082C169.563 287.956 169.651 287.844 169.759 287.753L171.284 286.556C171.494 286.406 171.753 286.342 172.008 286.378C172.263 286.414 172.495 286.547 172.655 286.749C172.804 286.955 172.867 287.211 172.831 287.463C172.795 287.715 172.663 287.943 172.462 288.1L170.937 289.278C170.764 289.407 170.553 289.475 170.338 289.471ZM537.565 286.305C537.365 286.306 537.17 286.245 537.006 286.131L535.422 285.031C535.21 284.885 535.064 284.66 535.017 284.407C534.969 284.153 535.025 283.892 535.171 283.679C535.317 283.467 535.541 283.321 535.795 283.274C536.048 283.227 536.31 283.282 536.523 283.428L538.126 284.548C538.329 284.702 538.465 284.929 538.505 285.181C538.544 285.433 538.485 285.69 538.338 285.899C538.251 286.024 538.136 286.126 538.001 286.196C537.867 286.267 537.717 286.304 537.565 286.305ZM179.781 282.772C179.576 282.769 179.378 282.702 179.214 282.58C179.05 282.457 178.93 282.286 178.87 282.091C178.81 281.895 178.813 281.686 178.88 281.493C178.946 281.299 179.072 281.132 179.24 281.015L180.881 279.973C181.099 279.837 181.362 279.793 181.612 279.851C181.861 279.909 182.078 280.064 182.214 280.282C182.35 280.499 182.393 280.762 182.335 281.012C182.277 281.261 182.123 281.478 181.905 281.614L180.302 282.637C180.139 282.737 179.952 282.79 179.761 282.791L179.781 282.772ZM527.852 279.973C527.682 279.976 527.514 279.929 527.37 279.838L525.709 278.853C525.599 278.793 525.503 278.711 525.425 278.613C525.347 278.516 525.29 278.403 525.256 278.283C525.221 278.163 525.212 278.037 525.226 277.913C525.241 277.789 525.28 277.669 525.342 277.56C525.475 277.339 525.688 277.179 525.937 277.114C526.186 277.05 526.451 277.085 526.674 277.212L528.335 278.197C528.445 278.257 528.541 278.339 528.619 278.437C528.696 278.535 528.753 278.648 528.785 278.769C528.818 278.89 528.825 279.016 528.808 279.14C528.79 279.264 528.748 279.383 528.683 279.49C528.598 279.636 528.477 279.757 528.332 279.842C528.186 279.927 528.021 279.972 527.852 279.973ZM189.745 276.845C189.53 276.847 189.32 276.776 189.15 276.644C188.979 276.512 188.858 276.328 188.805 276.119C188.751 275.91 188.769 275.69 188.856 275.493C188.942 275.296 189.092 275.133 189.281 275.031L190.981 274.104C191.209 273.984 191.475 273.959 191.721 274.035C191.968 274.111 192.174 274.282 192.294 274.51C192.414 274.737 192.439 275.004 192.363 275.25C192.287 275.496 192.116 275.702 191.888 275.822L190.208 276.73C190.066 276.806 189.907 276.846 189.745 276.845ZM517.734 274.432C517.58 274.439 517.427 274.406 517.289 274.336L515.571 273.467C515.346 273.359 515.174 273.166 515.091 272.931C515.007 272.696 515.02 272.438 515.127 272.212C515.182 272.098 515.26 271.996 515.355 271.912C515.45 271.828 515.561 271.763 515.681 271.722C515.802 271.681 515.929 271.663 516.056 271.671C516.182 271.679 516.306 271.712 516.421 271.768L518.158 272.656C518.27 272.717 518.369 272.799 518.449 272.898C518.529 272.997 518.589 273.11 518.624 273.232C518.66 273.354 518.672 273.482 518.658 273.609C518.644 273.735 518.606 273.858 518.545 273.969C518.466 274.121 518.347 274.249 518.2 274.337C518.054 274.426 517.886 274.472 517.714 274.471L517.734 274.432ZM200.076 271.575C199.895 271.576 199.718 271.525 199.564 271.43C199.41 271.334 199.287 271.197 199.207 271.035C199.099 270.804 199.085 270.54 199.168 270.298C199.251 270.057 199.424 269.857 199.651 269.741L201.408 268.931C201.633 268.856 201.877 268.867 202.094 268.961C202.312 269.054 202.487 269.224 202.587 269.439C202.687 269.653 202.705 269.897 202.637 270.123C202.569 270.35 202.421 270.544 202.22 270.668L200.482 271.498C200.353 271.551 200.215 271.577 200.076 271.575ZM507.287 269.375C507.161 269.413 507.026 269.413 506.9 269.375L505.182 268.641C504.956 268.535 504.78 268.345 504.691 268.112C504.602 267.879 504.606 267.621 504.704 267.391C504.801 267.161 504.984 266.978 505.213 266.88C505.443 266.782 505.702 266.777 505.935 266.865L507.711 267.637C507.963 267.693 508.183 267.845 508.324 268.061C508.465 268.276 508.516 268.539 508.465 268.792C508.415 269.044 508.267 269.267 508.054 269.412C507.841 269.557 507.579 269.613 507.325 269.568L507.287 269.375ZM210.678 266.904C210.487 266.9 210.302 266.842 210.145 266.736C209.987 266.629 209.864 266.48 209.789 266.305C209.698 266.069 209.702 265.807 209.799 265.573C209.896 265.34 210.079 265.152 210.311 265.05L212.106 264.317C212.224 264.27 212.35 264.246 212.477 264.248C212.604 264.25 212.73 264.277 212.846 264.327C212.963 264.377 213.068 264.45 213.157 264.541C213.245 264.632 213.315 264.739 213.362 264.857C213.412 264.974 213.438 265.099 213.439 265.226C213.44 265.352 213.415 265.478 213.367 265.595C213.318 265.712 213.246 265.818 213.156 265.907C213.066 265.996 212.958 266.066 212.84 266.112L211.044 266.826C210.917 266.855 210.785 266.855 210.658 266.826L210.678 266.904ZM496.589 264.973H496.241L494.445 264.278C494.189 264.217 493.968 264.056 493.83 263.832C493.693 263.607 493.65 263.337 493.711 263.081C493.773 262.825 493.934 262.604 494.158 262.467C494.383 262.329 494.653 262.286 494.909 262.348H495.121L496.936 263.043C497.17 263.137 497.357 263.32 497.458 263.55C497.559 263.781 497.566 264.042 497.477 264.278C497.398 264.448 497.268 264.589 497.106 264.683C496.943 264.776 496.756 264.817 496.569 264.799L496.589 264.973ZM221.472 262.85C221.276 262.84 221.087 262.774 220.927 262.662C220.766 262.549 220.64 262.393 220.564 262.213C220.478 261.972 220.49 261.707 220.598 261.475C220.707 261.243 220.903 261.064 221.144 260.977L223.075 260.321C223.316 260.234 223.581 260.246 223.813 260.355C224.044 260.463 224.224 260.659 224.311 260.9C224.391 261.141 224.373 261.403 224.261 261.631C224.149 261.858 223.952 262.033 223.712 262.116L221.897 262.772C221.765 262.836 221.618 262.863 221.472 262.85ZM485.659 260.919H485.35L483.535 260.301C483.279 260.222 483.065 260.044 482.94 259.807C482.815 259.57 482.789 259.293 482.869 259.037C482.948 258.781 483.126 258.567 483.363 258.442C483.6 258.317 483.877 258.292 484.133 258.371L485.968 258.989C486.206 259.065 486.405 259.23 486.524 259.449C486.643 259.669 486.672 259.926 486.605 260.166C486.557 260.381 486.437 260.572 486.265 260.709C486.092 260.846 485.879 260.92 485.659 260.919ZM232.46 258.989C232.333 259.008 232.203 259.001 232.079 258.97C231.954 258.938 231.838 258.882 231.735 258.805C231.633 258.727 231.546 258.63 231.482 258.52C231.417 258.409 231.376 258.286 231.359 258.159C231.337 258.033 231.341 257.904 231.37 257.78C231.4 257.655 231.454 257.538 231.529 257.435C231.605 257.332 231.701 257.246 231.811 257.181C231.921 257.116 232.043 257.075 232.17 257.058L234.101 256.479C234.344 256.407 234.606 256.433 234.83 256.552C235.055 256.671 235.223 256.874 235.298 257.116C235.338 257.232 235.354 257.354 235.346 257.475C235.339 257.597 235.307 257.716 235.253 257.825C235.199 257.935 235.124 258.032 235.033 258.113C234.941 258.193 234.835 258.255 234.719 258.294L232.788 258.873C232.706 258.925 232.614 258.958 232.518 258.969L232.46 258.989ZM474.613 257.444C474.524 257.464 474.432 257.464 474.343 257.444L472.412 256.904C472.169 256.821 471.966 256.649 471.847 256.421C471.727 256.194 471.699 255.93 471.768 255.683C471.837 255.435 471.999 255.224 472.219 255.092C472.439 254.96 472.702 254.918 472.953 254.973L474.884 255.514C475.007 255.547 475.122 255.605 475.222 255.684C475.323 255.762 475.406 255.861 475.467 255.972C475.528 256.084 475.567 256.207 475.579 256.334C475.592 256.461 475.578 256.589 475.54 256.711C475.508 256.932 475.396 257.135 475.225 257.28C475.055 257.426 474.837 257.505 474.613 257.502V257.444ZM243.583 255.726C243.457 255.745 243.328 255.739 243.205 255.707C243.082 255.675 242.966 255.619 242.865 255.541C242.764 255.464 242.68 255.367 242.617 255.256C242.555 255.145 242.515 255.023 242.501 254.896C242.482 254.769 242.489 254.64 242.52 254.515C242.552 254.391 242.608 254.274 242.685 254.172C242.763 254.069 242.86 253.983 242.971 253.919C243.081 253.854 243.204 253.812 243.332 253.796L245.263 253.294C245.507 253.259 245.755 253.316 245.96 253.453C246.165 253.589 246.313 253.797 246.375 254.035C246.437 254.274 246.409 254.527 246.296 254.746C246.184 254.965 245.995 255.136 245.765 255.224L243.834 255.726C243.751 255.746 243.665 255.746 243.583 255.726ZM463.452 254.375H463.201L461.27 253.892C461.022 253.833 460.807 253.677 460.674 253.46C460.54 253.243 460.497 252.982 460.555 252.734C460.619 252.485 460.778 252.27 460.999 252.137C461.219 252.003 461.482 251.961 461.733 252.02L463.664 252.502C463.791 252.518 463.914 252.558 464.025 252.62C464.136 252.683 464.234 252.767 464.313 252.867C464.392 252.967 464.45 253.082 464.485 253.205C464.519 253.328 464.529 253.457 464.514 253.583C464.499 253.71 464.459 253.833 464.396 253.944C464.333 254.055 464.25 254.153 464.149 254.232C464.049 254.311 463.934 254.369 463.811 254.404C463.688 254.438 463.559 254.448 463.433 254.433L463.452 254.375ZM254.899 252.85C254.642 252.878 254.386 252.803 254.185 252.642C253.984 252.481 253.855 252.247 253.827 251.991C253.799 251.735 253.873 251.478 254.034 251.277C254.196 251.076 254.43 250.948 254.686 250.919L256.617 250.475C256.873 250.411 257.144 250.452 257.371 250.588C257.597 250.723 257.76 250.943 257.824 251.199C257.888 251.455 257.848 251.726 257.712 251.953C257.576 252.179 257.356 252.342 257.1 252.406L255.169 252.85H254.899ZM452.271 251.653H452.059L450.128 251.248C450.003 251.22 449.885 251.168 449.781 251.095C449.676 251.022 449.587 250.929 449.519 250.821C449.451 250.714 449.405 250.594 449.383 250.468C449.362 250.342 449.365 250.214 449.394 250.089C449.417 249.966 449.464 249.849 449.534 249.745C449.603 249.641 449.693 249.552 449.797 249.484C449.902 249.415 450.019 249.368 450.142 249.346C450.266 249.324 450.392 249.328 450.514 249.356L452.445 249.78C452.572 249.793 452.695 249.83 452.808 249.89C452.921 249.95 453.02 250.031 453.101 250.13C453.182 250.229 453.242 250.343 453.279 250.465C453.315 250.587 453.327 250.715 453.314 250.842C453.285 251.1 453.155 251.336 452.952 251.499C452.75 251.662 452.491 251.738 452.232 251.711L452.271 251.653ZM266.214 250.34C265.995 250.341 265.781 250.267 265.609 250.13C265.437 249.993 265.317 249.802 265.268 249.587C265.222 249.335 265.274 249.074 265.414 248.858C265.554 248.643 265.771 248.489 266.021 248.429L267.952 248.043C268.206 247.998 268.467 248.053 268.679 248.197C268.892 248.341 269.04 248.563 269.092 248.815C269.117 248.939 269.118 249.067 269.094 249.192C269.07 249.316 269.021 249.435 268.951 249.541C268.881 249.646 268.791 249.737 268.686 249.808C268.581 249.879 268.463 249.929 268.339 249.954L266.408 250.321L266.214 250.34ZM440.936 249.317H440.743L438.812 248.97C438.56 248.918 438.338 248.77 438.193 248.557C438.049 248.345 437.994 248.084 438.039 247.831C438.086 247.58 438.23 247.359 438.44 247.214C438.65 247.069 438.908 247.013 439.159 247.059L441.09 247.425C441.341 247.472 441.563 247.616 441.707 247.826C441.852 248.036 441.908 248.294 441.863 248.545C441.813 248.776 441.683 248.983 441.496 249.127C441.308 249.272 441.076 249.346 440.839 249.336L440.936 249.317ZM277.608 248.178C277.352 248.201 277.097 248.122 276.899 247.957C276.702 247.792 276.578 247.556 276.555 247.3C276.532 247.044 276.612 246.789 276.777 246.592C276.941 246.395 277.178 246.271 277.434 246.248L279.365 245.92C279.492 245.898 279.622 245.902 279.747 245.93C279.872 245.959 279.991 246.012 280.096 246.086C280.201 246.161 280.29 246.255 280.358 246.364C280.427 246.473 280.473 246.594 280.495 246.721C280.516 246.847 280.512 246.977 280.484 247.103C280.455 247.228 280.402 247.346 280.328 247.451C280.253 247.556 280.159 247.645 280.05 247.714C279.941 247.782 279.82 247.828 279.693 247.85L277.762 248.178H277.608ZM429.523 247.309H429.369L427.438 247.001C427.186 246.958 426.961 246.819 426.81 246.614C426.659 246.409 426.593 246.153 426.627 245.9C426.674 245.649 426.817 245.425 427.026 245.278C427.235 245.13 427.494 245.069 427.747 245.109L429.678 245.398C429.929 245.445 430.153 245.589 430.301 245.798C430.448 246.007 430.509 246.265 430.47 246.518C430.46 246.645 430.425 246.769 430.367 246.882C430.309 246.995 430.23 247.096 430.133 247.179C430.036 247.261 429.924 247.324 429.803 247.363C429.681 247.402 429.554 247.417 429.427 247.406L429.523 247.309ZM289.039 246.344C288.914 246.355 288.787 246.34 288.667 246.301C288.547 246.262 288.436 246.199 288.34 246.116C288.245 246.033 288.167 245.932 288.111 245.819C288.056 245.706 288.023 245.582 288.016 245.456C288.005 245.329 288.02 245.202 288.059 245.081C288.098 244.959 288.161 244.847 288.243 244.75C288.326 244.653 288.427 244.574 288.54 244.516C288.654 244.458 288.777 244.424 288.904 244.414L290.835 244.144C291.088 244.11 291.344 244.176 291.549 244.327C291.755 244.478 291.893 244.703 291.936 244.954C291.969 245.21 291.901 245.468 291.746 245.674C291.59 245.88 291.361 246.016 291.106 246.055L289.175 246.325L289.039 246.344ZM418.053 245.611H417.918L415.987 245.36C415.733 245.326 415.504 245.193 415.348 244.991C415.192 244.788 415.123 244.532 415.156 244.279C415.185 244.031 415.311 243.804 415.507 243.649C415.702 243.493 415.951 243.421 416.199 243.449L418.13 243.7C418.378 243.729 418.605 243.855 418.76 244.05C418.916 244.245 418.988 244.494 418.96 244.742C418.951 244.869 418.916 244.993 418.858 245.106C418.8 245.219 418.721 245.32 418.624 245.403C418.527 245.485 418.415 245.548 418.294 245.587C418.172 245.626 418.045 245.641 417.918 245.63L418.053 245.611ZM406.467 244.24L404.536 244.028C404.282 243.999 404.051 243.871 403.892 243.672C403.733 243.473 403.659 243.219 403.686 242.966C403.724 242.717 403.854 242.491 404.051 242.334C404.248 242.177 404.497 242.099 404.748 242.117L406.679 242.31C406.935 242.31 407.181 242.411 407.362 242.592C407.543 242.773 407.645 243.019 407.645 243.275C407.645 243.531 407.543 243.776 407.362 243.957C407.181 244.138 406.935 244.24 406.679 244.24H406.467ZM394.88 243.159L392.949 243.005C392.822 242.995 392.699 242.96 392.585 242.902C392.472 242.845 392.371 242.765 392.288 242.668C392.206 242.571 392.143 242.459 392.104 242.338C392.065 242.217 392.05 242.089 392.061 241.962C392.09 241.71 392.214 241.478 392.407 241.313C392.601 241.148 392.85 241.063 393.104 241.074L395.035 241.229C395.159 241.236 395.281 241.268 395.393 241.322C395.505 241.377 395.605 241.453 395.687 241.546C395.77 241.639 395.833 241.748 395.874 241.866C395.914 241.984 395.931 242.108 395.923 242.232C395.921 242.359 395.893 242.484 395.842 242.6C395.791 242.716 395.718 242.821 395.627 242.909C395.535 242.997 395.427 243.066 395.309 243.112C395.191 243.158 395.065 243.181 394.938 243.178L394.88 243.159ZM383.294 242.368H381.363C381.107 242.352 380.867 242.236 380.697 242.044C380.527 241.852 380.44 241.6 380.455 241.344C380.471 241.088 380.587 240.849 380.779 240.679C380.971 240.509 381.223 240.422 381.479 240.437L383.41 240.553C383.666 240.553 383.911 240.655 384.093 240.836C384.274 241.017 384.375 241.262 384.375 241.518C384.375 241.774 384.274 242.02 384.093 242.201C383.911 242.382 383.666 242.483 383.41 242.483L383.294 242.368ZM371.708 241.846H369.777C369.65 241.844 369.525 241.816 369.409 241.765C369.292 241.715 369.187 241.641 369.1 241.55C369.012 241.459 368.943 241.351 368.896 241.233C368.85 241.115 368.828 240.989 368.83 240.862C368.833 240.733 368.861 240.607 368.913 240.489C368.965 240.372 369.04 240.266 369.134 240.178C369.227 240.09 369.337 240.021 369.458 239.976C369.578 239.931 369.706 239.911 369.835 239.916H371.766C372.022 239.916 372.267 240.018 372.448 240.199C372.629 240.38 372.731 240.625 372.731 240.881C372.731 241.137 372.629 241.383 372.448 241.564C372.267 241.745 372.022 241.846 371.766 241.846H371.708ZM360.121 241.615H358.19C357.934 241.615 357.689 241.513 357.508 241.332C357.327 241.151 357.225 240.905 357.225 240.649C357.234 240.396 357.339 240.156 357.518 239.977C357.697 239.799 357.937 239.694 358.19 239.684H360.121C360.248 239.687 360.373 239.714 360.489 239.765C360.606 239.816 360.711 239.889 360.799 239.98C360.886 240.072 360.955 240.18 361.002 240.298C361.048 240.416 361.07 240.542 361.068 240.669C361.068 240.91 360.976 241.142 360.811 241.318C360.646 241.494 360.42 241.6 360.179 241.615H360.121Z" fill="#768386"/>
<path d="M137.452 360.029C158.281 360.029 175.165 343.149 175.165 322.327C175.165 301.505 158.281 284.625 137.452 284.625C116.624 284.625 99.7386 301.505 99.7386 322.327C99.7386 343.149 116.624 360.029 137.452 360.029Z" fill="white"/>
<path d="M133.165 317.559H155.99V326.4H133.204V333.099H144.076V338.137H133.165V345.859H123.162V338.137H118.47V333.022H123.085V298.737H156.434V307.54H134.15C133.3 307.54 133.03 307.713 133.049 308.64V316.362L133.165 317.559Z" fill="#768386"/>
<path d="M238.716 274.355C259.545 274.355 276.43 257.476 276.43 236.653C276.43 215.831 259.545 198.952 238.716 198.952C217.888 198.952 201.003 215.831 201.003 236.653C201.003 257.476 217.888 274.355 238.716 274.355Z" fill="white"/>
<path d="M263.395 223.198L254.493 227.58C251.191 222.349 246.614 219.723 240.338 220.65C237.978 220.965 235.729 221.848 233.785 223.223C231.84 224.598 230.259 226.425 229.177 228.545H247.213V234.086H227.42V238.893H247.232V244.549H229.042C230.065 246.694 231.605 248.552 233.522 249.956C235.439 251.361 237.675 252.269 240.029 252.599C242.85 253.172 245.782 252.807 248.376 251.559C250.97 250.311 253.084 248.249 254.396 245.688L263.492 250.089C262.391 251.576 261.464 253.024 260.344 254.336C258.255 256.813 255.646 258.798 252.702 260.153C249.758 261.508 246.553 262.198 243.312 262.174C238.134 262.351 233.01 261.073 228.52 258.487C223.59 255.697 219.853 251.199 218.015 245.842C217.668 244.877 217.243 244.375 216.084 244.53C215.307 244.587 214.526 244.587 213.748 244.53V238.931H216.316V234.124H213.748V228.565H216.683C216.929 228.617 217.185 228.572 217.397 228.439C217.61 228.305 217.763 228.094 217.822 227.85C219.081 223.909 221.399 220.39 224.523 217.677C227.509 215.028 231.084 213.128 234.951 212.137C238.82 211.092 242.864 210.862 246.827 211.461C249.676 211.841 252.418 212.794 254.887 214.264C257.357 215.734 259.502 217.69 261.194 220.013C261.87 220.901 262.468 221.943 263.125 222.793C263.23 222.917 263.321 223.053 263.395 223.198Z" fill="#768386"/>
<path d="M478.34 279.606C499.169 279.606 516.053 262.726 516.053 241.904C516.053 221.082 499.169 204.202 478.34 204.202C457.512 204.202 440.627 221.082 440.627 241.904C440.627 262.726 457.512 279.606 478.34 279.606Z" fill="white"/>
<path d="M464.456 266.923L460.941 259.857C461.83 259.336 462.737 258.873 463.587 258.313C465.975 256.968 467.809 254.82 468.762 252.251C469.232 250.471 469.025 248.58 468.183 246.943C468.183 246.75 467.661 246.615 467.372 246.615H459.339V240.591H464.07C463.297 239.182 462.486 237.87 461.868 236.46C460.995 234.519 460.643 232.384 460.846 230.265C461.049 228.146 461.801 226.116 463.027 224.376C464.318 222.409 466.002 220.731 467.972 219.445C469.943 218.16 472.158 217.295 474.478 216.905C479.493 215.792 484.737 216.397 489.366 218.623C492.248 220.093 494.583 222.447 496.029 225.341L487.802 230.032C487.148 229.048 486.433 228.106 485.659 227.213C484.643 226.197 483.367 225.479 481.971 225.139C480.574 224.799 479.111 224.848 477.742 225.283C475.942 225.655 474.363 226.726 473.353 228.261C472.342 229.795 471.983 231.669 472.354 233.468C472.471 234.051 472.666 234.616 472.933 235.148C473.722 236.893 474.652 238.572 475.714 240.167C475.839 240.301 475.992 240.407 476.162 240.477C476.332 240.547 476.515 240.58 476.699 240.572H486.547V246.576H478.244C478.459 248.365 478.184 250.179 477.45 251.824C476.715 253.469 475.548 254.885 474.073 255.919L475.501 255.746C478.172 255.497 480.856 256.034 483.226 257.29C484.648 257.977 486.233 258.256 487.805 258.096C489.377 257.936 490.873 257.343 492.128 256.383C492.496 256.091 492.839 255.768 493.151 255.417C494.542 258.178 495.893 260.9 497.284 263.699C496.012 265.037 494.405 266.01 492.63 266.517C488.771 267.773 484.613 267.773 480.754 266.517C479.631 266.137 478.529 265.699 477.452 265.205C475.942 264.536 474.304 264.205 472.653 264.235C471.002 264.265 469.378 264.655 467.893 265.379L464.456 266.923Z" fill="#768386"/>
<path d="M546.873 411.398C567.702 411.398 584.587 394.518 584.587 373.696C584.587 352.874 567.702 335.995 546.873 335.995C526.045 335.995 509.16 352.874 509.16 373.696C509.16 394.518 526.045 411.398 546.873 411.398Z" fill="white"/>
<path d="M546.931 369.295L549.422 365.241C552.087 360.878 554.771 356.515 557.417 352.133C557.542 351.867 557.747 351.647 558.003 351.502C558.259 351.357 558.553 351.294 558.846 351.322H568.906C564.31 358.407 559.83 365.357 555.234 372.422H566.975V377.789H551.701V383.098H566.975V388.329H551.72V396.051H542.219V388.329H526.983V383.078H542.123V377.77H526.964V372.422H538.685L524.936 351.187H535.036C535.259 351.16 535.485 351.201 535.685 351.304C535.885 351.408 536.049 351.569 536.156 351.766C538.357 355.383 540.571 358.986 542.799 362.577L546.931 369.295Z" fill="#768386"/>
<path d="M237.809 450.297C258.637 450.297 275.522 433.417 275.522 412.595C275.522 391.773 258.637 374.893 237.809 374.893C216.98 374.893 200.095 391.773 200.095 412.595C200.095 433.417 216.98 450.297 237.809 450.297Z" fill="white"/>
<path d="M234.661 388.329V381.959H242.096V388.503C247.442 389.149 252.452 391.45 256.424 395.086L250.399 403.039C248.082 400.856 245.253 399.29 242.173 398.483V407.248C244.104 407.904 246.035 408.445 247.831 409.178C251.047 410.043 253.804 412.117 255.527 414.966C257.251 417.814 257.807 421.218 257.081 424.467C256.797 426.449 256.076 428.343 254.971 430.012C253.865 431.682 252.403 433.085 250.689 434.12C248.332 435.541 245.698 436.443 242.965 436.764C242.231 436.764 242.096 437.131 242.115 437.787V443.173H234.661V437.131C232.73 436.726 230.895 436.398 229.1 435.915C225.395 434.97 221.992 433.096 219.213 430.471C218.035 429.39 218.054 429.351 218.981 428.039C220.584 425.741 222.206 423.464 223.905 421.07C226.743 424.199 230.492 426.359 234.622 427.247V417.286C232.498 416.572 230.432 415.993 228.443 415.182C226.668 414.608 225.037 413.657 223.664 412.394C222.291 411.131 221.207 409.586 220.487 407.865C219.821 406.17 219.512 404.356 219.579 402.536C219.645 400.716 220.086 398.929 220.873 397.287C221.945 395.157 223.492 393.301 225.393 391.862C227.294 390.423 229.5 389.439 231.842 388.986C232.73 388.715 233.618 388.58 234.661 388.329ZM242.153 427.112C243.265 426.996 244.299 426.49 245.073 425.684C245.847 424.879 246.311 423.825 246.382 422.711C246.382 421.05 244.451 419.68 242.153 419.217V427.112ZM234.564 405.259V397.982C233.538 398.005 232.559 398.416 231.825 399.133C231.09 399.849 230.654 400.818 230.606 401.842C230.606 403.406 232.305 404.854 234.564 405.24V405.259Z" fill="#768386"/>
</g>
<defs>
<linearGradient id="paint0_linear" x1="318.198" y1="142.061" x2="418.785" y2="126.821" gradientUnits="userSpaceOnUse">
<stop offset="0.01"/>
<stop offset="0.13" stop-opacity="0.69"/>
<stop offset="0.25" stop-opacity="0.32"/>
<stop offset="1" stop-opacity="0"/>
</linearGradient>
<linearGradient id="paint1_linear" x1="37443.1" y1="-6483.96" x2="34635.7" y2="-3757.67" gradientUnits="userSpaceOnUse">
<stop offset="0.01"/>
<stop offset="0.13" stop-opacity="0.69"/>
<stop offset="0.25" stop-opacity="0.32"/>
<stop offset="1" stop-opacity="0"/>
</linearGradient>
<linearGradient id="paint2_linear" x1="6263.31" y1="3033.9" x2="6102.48" y2="2700.63" gradientUnits="userSpaceOnUse">
<stop offset="0.01"/>
<stop offset="0.13" stop-opacity="0.69"/>
<stop offset="0.25" stop-opacity="0.32"/>
<stop offset="1" stop-opacity="0"/>
</linearGradient>
<linearGradient id="paint3_linear" x1="26618.7" y1="-1880.02" x2="26478.1" y2="-2474.66" gradientUnits="userSpaceOnUse">
<stop offset="0.01"/>
<stop offset="0.13" stop-opacity="0.69"/>
<stop offset="0.25" stop-opacity="0.32"/>
<stop offset="1" stop-opacity="0"/>
</linearGradient>
<linearGradient id="paint4_linear" x1="263.897" y1="299.953" x2="407.181" y2="305.748" gradientUnits="userSpaceOnUse">
<stop/>
<stop offset="1" stop-opacity="0"/>
</linearGradient>
<linearGradient id="paint5_linear" x1="15304.5" y1="15100.3" x2="10705.9" y2="15593.6" gradientUnits="userSpaceOnUse">
<stop/>
<stop offset="1" stop-opacity="0"/>
</linearGradient>
<linearGradient id="paint6_linear" x1="9390.28" y1="-4453.86" x2="9067.37" y2="-3946.7" gradientUnits="userSpaceOnUse">
<stop offset="0.01"/>
<stop offset="0.13" stop-opacity="0.69"/>
<stop offset="0.25" stop-opacity="0.32"/>
<stop offset="1" stop-opacity="0"/>
</linearGradient>
<linearGradient id="paint7_linear" x1="54432.1" y1="-5189.41" x2="54289.9" y2="-5910.6" gradientUnits="userSpaceOnUse">
<stop/>
<stop offset="1" stop-opacity="0"/>
</linearGradient>
<clipPath id="clip0">
<rect width="722" height="544" fill="white"/>
</clipPath>
</defs>
</svg>
